<svg width="750" height="500" viewBox="0 0 750 500" fill="none" xmlns="http://www.w3.org/2000/svg">
<path d="M467 443.86C469.409 442.509 472.115 441.779 474.876 441.734C477.638 441.689 480.367 442.331 482.818 443.602C485.27 444.873 487.366 446.734 488.92 449.017C490.474 451.3 491.436 453.933 491.72 456.68C481.62 456.68 471.72 454.33 467 443.86Z" fill="#EBEBEB"/>
<path d="M478.76 433.51C482.156 434.625 485.776 434.878 489.294 434.245C492.812 433.613 496.118 432.115 498.913 429.887C501.708 427.659 503.906 424.771 505.307 421.483C506.708 418.195 507.269 414.609 506.94 411.05C494.11 413.57 482.07 419.05 478.76 433.51Z" fill="#EBEBEB"/>
<path d="M434.79 450.6C434.992 450.499 435.203 450.415 435.42 450.35L437.27 449.73C438.87 449.21 441.19 448.45 444.04 447.46C449.75 445.46 457.58 442.62 466.04 438.95C470.25 437.1 474.21 435.22 477.77 433.42C481.33 431.62 484.44 429.84 487.02 428.27C489.051 427.049 491.011 425.714 492.89 424.27C494.21 423.27 494.89 422.56 494.89 422.6C494.759 422.783 494.608 422.951 494.44 423.1C493.988 423.569 493.511 424.013 493.01 424.43C491.17 425.955 489.229 427.355 487.2 428.62C484.65 430.24 481.52 432.02 477.98 433.88C474.44 435.74 470.46 437.61 466.23 439.47C457.78 443.15 449.91 445.97 444.17 447.85C441.3 448.8 438.96 449.5 437.34 449.96L435.47 450.49C435.249 450.555 435.02 450.592 434.79 450.6Z" fill="#E0E0E0"/>
<path d="M480 449.74C480 449.82 478.78 449 476.77 447.91C474.144 446.501 471.371 445.388 468.5 444.59C465.62 443.808 462.661 443.356 459.68 443.24C457.4 443.15 455.97 443.24 455.97 443.16C456.295 443.065 456.631 443.011 456.97 443C457.877 442.904 458.788 442.86 459.7 442.87C465.768 442.897 471.722 444.525 476.96 447.59C477.749 448.048 478.511 448.552 479.24 449.1C479.523 449.275 479.779 449.491 480 449.74Z" fill="#E0E0E0"/>
<path d="M241.73 404.78C240.507 408.039 240.114 411.552 240.586 415.001C241.057 418.45 242.379 421.728 244.432 424.539C246.485 427.351 249.204 429.608 252.346 431.107C255.488 432.607 258.953 433.302 262.43 433.13C260.51 420.55 255.67 408.59 241.73 404.78Z" fill="#EBEBEB"/>
<path d="M239.76 398.6C239.84 398.6 240.18 399.98 240.91 402.17C241.858 405.025 243.046 407.795 244.46 410.45C245.893 413.095 247.542 415.617 249.39 417.99C250.82 419.81 251.79 420.87 251.73 420.93C251.449 420.74 251.193 420.515 250.97 420.26C250.5 419.8 249.86 419.11 249.11 418.26C245.177 413.603 242.264 408.173 240.56 402.32C240.24 401.2 240.01 400.32 239.9 399.64C239.797 399.303 239.75 398.952 239.76 398.6Z" fill="#E0E0E0"/>
<path d="M41.89 152.44C39.9911 157.493 39.3797 162.94 40.111 168.289C40.8423 173.637 42.8932 178.72 46.0788 183.078C49.2645 187.437 53.4847 190.934 58.359 193.254C63.2334 195.574 68.6086 196.645 74 196.37C71 176.87 63.53 158.37 41.93 152.44" fill="#EBEBEB"/>
<path d="M38.83 142.88C39.0331 143.361 39.1905 143.86 39.3 144.37C39.56 145.37 39.97 146.73 40.52 148.44C41.9708 152.877 43.8044 157.18 46 161.3C48.2124 165.417 50.7822 169.332 53.68 173C54.8 174.4 55.68 175.52 56.39 176.27C56.752 176.649 57.0862 177.053 57.39 177.48C56.9778 177.159 56.5962 176.801 56.25 176.41C55.54 175.69 54.56 174.61 53.41 173.23C47.3712 165.99 42.8697 157.596 40.18 148.56C39.67 146.84 39.31 145.42 39.11 144.44C38.9799 143.927 38.8863 143.406 38.83 142.88Z" fill="#E0E0E0"/>
<path d="M75.6799 351.48C72.9661 353.663 70.8379 356.487 69.487 359.697C68.136 362.908 67.6047 366.403 67.941 369.87C68.2772 373.337 69.4705 376.665 71.4132 379.556C73.3559 382.447 75.9872 384.809 79.0699 386.43C83.8199 374.62 85.7399 361.87 75.6799 351.48Z" fill="#EBEBEB"/>
<path d="M77.12 345.16C77.2 345.16 76.79 346.57 76.3 348.82C75.0053 354.71 74.7515 360.782 75.55 366.76C75.85 369.05 76.15 370.46 76.06 370.48C75.9167 370.16 75.8126 369.825 75.75 369.48C75.58 368.85 75.38 367.93 75.18 366.79C74.1779 360.776 74.4367 354.619 75.94 348.71C76.23 347.58 76.51 346.71 76.73 346.07C76.8247 345.753 76.9556 345.447 77.12 345.16Z" fill="#E0E0E0"/>
<path d="M261.26 98.62C264.377 100.172 267.831 100.924 271.311 100.81C274.791 100.695 278.187 99.7173 281.196 97.9638C284.204 96.2104 286.728 93.7365 288.543 90.7648C290.357 87.7931 291.405 84.4169 291.59 80.94C278.87 81.55 266.49 85.14 261.26 98.62Z" fill="#EBEBEB"/>
<path d="M254.91 100C254.91 99.92 256.33 99.72 258.58 99.22C264.47 97.9329 270.091 95.6283 275.19 92.41C277.19 91.17 278.3 90.32 278.35 90.41C278.138 90.6749 277.889 90.9074 277.61 91.1C277.11 91.52 276.35 92.1 275.39 92.74C270.352 96.1697 264.654 98.5097 258.66 99.61C257.51 99.82 256.58 99.94 255.93 100C255.591 100.046 255.248 100.046 254.91 100Z" fill="#E0E0E0"/>
<path d="M235.34 96.81C239.829 95.8464 244.009 93.7816 247.502 90.8013C250.995 87.8211 253.692 84.0189 255.35 79.7372C257.008 75.4555 257.576 70.8286 257.002 66.273C256.427 61.7174 254.729 57.3761 252.06 53.64C239.46 64.73 229.64 78.64 235.34 96.81Z" fill="#EBEBEB"/>
<path d="M229.89 103.39C230.138 103.031 230.419 102.696 230.73 102.39C231.3 101.76 232.11 100.82 233.07 99.64C238.112 93.4798 242.017 86.4702 244.6 78.94C245.1 77.5 245.47 76.32 245.71 75.5C245.81 75.0665 245.954 74.6444 246.14 74.24C246.109 74.6843 246.029 75.1237 245.9 75.55C245.73 76.39 245.4 77.55 244.9 79.05C242.501 86.7098 238.557 93.7959 233.31 99.87C232.31 101.03 231.45 101.94 230.83 102.53C230.547 102.849 230.232 103.137 229.89 103.39Z" fill="#E0E0E0"/>
<path d="M317.37 439.37C318.318 441.238 319.716 442.842 321.437 444.036C323.158 445.231 325.149 445.979 327.231 446.214C329.313 446.449 331.421 446.164 333.365 445.383C335.309 444.602 337.029 443.35 338.37 441.74C332.01 437.46 324.73 434.74 317.37 439.37Z" fill="#EBEBEB"/>
<path d="M313.83 437.73C316.17 438.767 318.575 439.649 321.03 440.37C323.528 440.922 326.06 441.303 328.61 441.51C327.865 441.674 327.099 441.721 326.34 441.65C322.658 441.525 319.048 440.6 315.76 438.94C315.06 438.636 314.409 438.228 313.83 437.73Z" fill="#E0E0E0"/>
<path d="M410.07 80.33C411.36 81.9835 413.042 83.2899 414.963 84.1314C416.884 84.9729 418.985 85.3232 421.075 85.1505C423.165 84.9779 425.18 84.2879 426.937 83.1426C428.694 81.9973 430.138 80.4328 431.14 78.59C424.07 75.59 416.41 74.36 410.07 80.33Z" fill="#EBEBEB"/>
<path d="M406.28 79.41C411.249 80.7106 416.428 80.9996 421.51 80.26C420.808 80.5559 420.067 80.7479 419.31 80.83C415.672 81.4225 411.949 81.2144 408.4 80.22C407.656 80.0587 406.942 79.7856 406.28 79.41Z" fill="#E0E0E0"/>
<path d="M650.31 111.09C653.665 112.013 657.196 112.088 660.587 111.309C663.977 110.529 667.121 108.919 669.736 106.624C672.351 104.329 674.354 101.42 675.566 98.1584C676.778 94.8971 677.161 91.3858 676.68 87.94C664.32 90.94 652.86 96.87 650.31 111.09Z" fill="#EBEBEB"/>
<path d="M644.33 113.61C644.33 113.53 645.66 113.06 647.78 112.14C653.315 109.751 658.391 106.414 662.78 102.28C664.47 100.69 665.43 99.63 665.5 99.69C665.336 99.9851 665.135 100.257 664.9 100.5C664.49 101.01 663.9 101.71 663.04 102.5C658.749 106.828 653.603 110.213 647.93 112.44C646.85 112.86 645.93 113.17 645.33 113.34C645.009 113.472 644.673 113.562 644.33 113.61Z" fill="#E0E0E0"/>
<path d="M674 415.88C679.9 414.514 685.369 411.703 689.914 407.7C694.459 403.697 697.938 398.627 700.038 392.946C702.138 387.265 702.794 381.152 701.946 375.155C701.098 369.158 698.773 363.466 695.18 358.59C678.75 373.48 666.09 392 674 415.88Z" fill="#EBEBEB"/>
<path d="M666.91 424.68C667.25 424.2 667.625 423.746 668.03 423.32C668.78 422.48 669.83 421.23 671.08 419.66C672.33 418.09 673.77 416.16 675.26 413.96C676.75 411.76 678.26 409.25 679.73 406.55C681.2 403.85 682.4 401.19 683.43 398.73C684.46 396.27 685.27 394.02 685.88 392.1C686.49 390.18 686.95 388.62 687.24 387.53C687.365 386.956 687.539 386.394 687.76 385.85C687.695 386.434 687.588 387.012 687.44 387.58C687.21 388.69 686.8 390.27 686.23 392.21C685.66 394.15 684.87 396.43 683.88 398.92C682.89 401.41 681.64 404.07 680.19 406.8C678.805 409.351 677.293 411.831 675.66 414.23C674.13 416.43 672.66 418.34 671.37 419.89C670.08 421.44 668.97 422.66 668.18 423.46C667.79 423.9 667.365 424.308 666.91 424.68Z" fill="#E0E0E0"/>
<path d="M538.22 289.8C531.91 254.55 501.64 223.8 465.95 220.86C446.5 219.28 426.95 225.41 407.58 223.07C391.163 221.021 376.057 213.057 365.09 200.67C349.09 182.47 343.68 156.58 326.74 139.26C303.4 115.37 262.67 115 234.27 132.57C205.87 150.14 188.7 181.85 180.84 214.3L180.53 224.17C178.82 257.83 187.68 297 207.21 327C227 357.4 240.01 370 276.07 391.81C306.69 410.37 366.65 418.53 402.45 419.39C438.25 420.25 475.02 409.59 501.95 385.97C528.88 362.35 544.54 325.05 538.22 289.8Z" fill="#EB4143"/>
<g opacity="0.8">
<path d="M538.22 289.8C531.91 254.55 501.64 223.8 465.95 220.86C446.5 219.28 426.95 225.41 407.58 223.07C391.163 221.021 376.057 213.057 365.09 200.67C349.09 182.47 343.68 156.58 326.74 139.26C303.4 115.37 262.67 115 234.27 132.57C205.87 150.14 188.7 181.85 180.84 214.3L180.53 224.17C178.82 257.83 187.68 297 207.21 327C227 357.4 240.01 370 276.07 391.81C306.69 410.37 366.65 418.53 402.45 419.39C438.25 420.25 475.02 409.59 501.95 385.97C528.88 362.35 544.54 325.05 538.22 289.8Z" fill="white"/>
</g>
<path d="M573.315 415.655C574.683 406.227 568.15 397.474 558.722 396.106C549.294 394.737 540.541 401.271 539.172 410.699C537.804 420.127 544.337 428.879 553.765 430.248C563.193 431.617 571.946 425.083 573.315 415.655Z" fill="#EB4143"/>
<path opacity="0.8" d="M573.315 415.655C574.683 406.227 568.15 397.474 558.722 396.106C549.294 394.737 540.541 401.271 539.172 410.699C537.804 420.127 544.337 428.879 553.765 430.248C563.193 431.617 571.946 425.083 573.315 415.655Z" fill="white"/>
<path d="M435.16 280.45C435.487 314.89 427.98 341.223 412.64 359.45C397.3 377.677 376.3 386.91 349.64 387.15C322.84 387.41 301.537 378.583 285.73 360.67C269.923 342.757 261.85 316.583 261.51 282.15L260.93 221.59C260.597 187.283 268.103 160.95 283.45 142.59C298.797 124.23 319.867 114.937 346.66 114.71C373.327 114.45 394.57 123.34 410.39 141.38C426.21 159.42 434.28 185.59 434.6 219.89L435.16 280.45ZM390.33 213.53C390.11 191.843 386.333 175.83 379 165.49C371.667 155.15 361 150.043 347 150.17C333.047 150.303 322.517 155.613 315.41 166.1C308.303 176.587 304.833 192.67 305 214.35L305.7 287.94C305.907 309.74 309.73 325.843 317.17 336.25C324.61 346.657 335.3 351.793 349.24 351.66C363.18 351.527 373.677 346.217 380.73 335.73C387.783 325.243 391.207 309.04 391 287.12L390.33 213.53Z" fill="#EB4143"/>
<g opacity="0.4">
<path d="M435.16 280.45C435.487 314.89 427.98 341.223 412.64 359.45C397.3 377.677 376.3 386.91 349.64 387.15C322.84 387.41 301.537 378.583 285.73 360.67C269.923 342.757 261.85 316.583 261.51 282.15L260.93 221.59C260.597 187.283 268.103 160.95 283.45 142.59C298.797 124.23 319.867 114.937 346.66 114.71C373.327 114.45 394.57 123.34 410.39 141.38C426.21 159.42 434.28 185.59 434.6 219.89L435.16 280.45ZM390.33 213.53C390.11 191.843 386.333 175.83 379 165.49C371.667 155.15 361 150.043 347 150.17C333.047 150.303 322.517 155.613 315.41 166.1C308.303 176.587 304.833 192.67 305 214.35L305.7 287.94C305.907 309.74 309.73 325.843 317.17 336.25C324.61 346.657 335.3 351.793 349.24 351.66C363.18 351.527 373.677 346.217 380.73 335.73C387.783 325.243 391.207 309.04 391 287.12L390.33 213.53Z" fill="black"/>
</g>
<path d="M460.62 280.21C460.953 314.643 453.447 340.977 438.1 359.21C422.753 377.443 401.753 386.677 375.1 386.91C348.3 387.17 326.997 378.34 311.19 360.42C295.383 342.5 287.32 316.32 287 281.88L286.42 221.32C286.087 187.013 293.593 160.68 308.94 142.32C324.287 123.96 345.357 114.663 372.15 114.43C398.817 114.183 420.06 123.073 435.88 141.1C451.7 159.127 459.74 185.31 460 219.65L460.62 280.21ZM415.79 213.29C415.577 191.61 411.783 175.61 404.41 165.29C397.037 154.97 386.37 149.863 372.41 149.97C358.457 150.11 347.927 155.42 340.82 165.9C333.713 176.38 330.26 192.467 330.46 214.16L331.17 287.74C331.383 309.547 335.207 325.653 342.64 336.06C350.073 346.467 360.763 351.603 374.71 351.47C388.65 351.33 399.147 346.02 406.2 335.54C413.253 325.06 416.673 308.853 416.46 286.92L415.79 213.29Z" fill="#EB4143"/>
<path d="M286.55 224.92C286.6 225.05 280.69 227.4 273.35 230.16C266.01 232.92 260 235 260 234.91C260 234.82 265.86 232.43 273.2 229.67C280.54 226.91 286.5 224.78 286.55 224.92Z" fill="#EB4143"/>
<path d="M288 248.85C288.05 248.98 282.14 251.33 274.79 254.09C267.44 256.85 261.46 258.97 261.41 258.84C261.36 258.71 267.27 256.36 274.61 253.6C281.95 250.84 288 248.71 288 248.85Z" fill="#EB4143"/>
<path d="M289.49 272.78C289.54 272.91 283.63 275.26 276.28 278.02C268.93 280.78 263 282.9 262.9 282.77C262.8 282.64 268.76 280.29 276.1 277.53C283.44 274.77 289.44 272.64 289.49 272.78Z" fill="#EB4143"/>
<path d="M291 296.71C291.05 296.84 285.14 299.19 277.79 301.95C270.44 304.71 264.45 306.83 264.4 306.7C264.35 306.57 270.27 304.22 277.61 301.46C284.95 298.7 290.91 296.57 291 296.71Z" fill="#EB4143"/>
<path d="M292.43 320.64C292.142 320.825 291.833 320.976 291.51 321.09C290.91 321.35 290.03 321.71 288.95 322.14C286.77 323.01 283.76 324.14 280.42 325.43C277.08 326.72 274.04 327.79 271.83 328.57C270.73 328.96 269.83 329.27 269.21 329.47C268.891 329.604 268.554 329.692 268.21 329.73C268.497 329.542 268.806 329.391 269.13 329.28C269.73 329.02 270.6 328.66 271.69 328.28C273.86 327.41 276.88 326.28 280.22 324.99C283.56 323.7 286.6 322.62 288.81 321.85C289.91 321.46 290.81 321.15 291.43 320.95C291.746 320.796 292.083 320.692 292.43 320.64Z" fill="#EB4143"/>
<path d="M299.26 342.53C298.296 343.049 297.293 343.494 296.26 343.86C294.36 344.62 291.73 345.64 288.82 346.74C285.91 347.84 283.25 348.8 281.33 349.47C280.305 349.887 279.248 350.221 278.17 350.47C279.133 349.948 280.136 349.503 281.17 349.14C283.06 348.37 285.69 347.35 288.61 346.26C291.53 345.17 294.17 344.2 296.1 343.53C297.123 343.108 298.18 342.774 299.26 342.53Z" fill="#EB4143"/>
<path d="M313.89 362.61C313.029 363.089 312.129 363.494 311.2 363.82C309.51 364.5 307.2 365.41 304.58 366.39C301.96 367.37 299.58 368.22 297.9 368.81C296.987 369.18 296.043 369.471 295.08 369.68C295.938 369.196 296.839 368.791 297.77 368.47C299.45 367.79 301.77 366.88 304.39 365.9C307.01 364.92 309.39 364.07 311.07 363.47C311.983 363.1 312.926 362.812 313.89 362.61Z" fill="#EB4143"/>
<path d="M338.2 375.78C337.337 376.252 336.438 376.654 335.51 376.98C333.82 377.67 331.51 378.58 328.89 379.55C326.27 380.52 323.89 381.38 322.21 381.98C321.297 382.35 320.354 382.638 319.39 382.84C320.251 382.361 321.151 381.956 322.08 381.63C323.77 380.95 326.08 380.04 328.7 379.06C331.32 378.08 333.7 377.23 335.38 376.64C336.29 376.264 337.235 375.976 338.2 375.78Z" fill="#EB4143"/>
<path d="M411.52 324.71C411.58 324.84 403.99 328.38 394.57 332.62C385.15 336.86 377.46 340.18 377.4 340.05C377.34 339.92 384.93 336.38 394.4 332.14C403.87 327.9 411.46 324.58 411.52 324.71Z" fill="#EB4143"/>
<path d="M416.5 304.21C416.56 304.34 410.29 307.28 402.5 310.78C394.71 314.28 388.35 317.02 388.29 316.89C388.23 316.76 394.49 313.81 402.29 310.31C410.09 306.81 416.44 304.08 416.5 304.21Z" fill="#EB4143"/>
<path d="M418.79 281.18C418.85 281.31 412.58 284.25 404.79 287.75C397 291.25 390.64 293.99 390.58 293.86C390.52 293.73 396.78 290.78 404.58 287.28C412.38 283.78 418.73 281 418.79 281.18Z" fill="#EB4143"/>
<path d="M421.08 258.14C421.14 258.27 414.88 261.22 407.08 264.72C399.28 268.22 392.93 270.95 392.87 270.82C392.81 270.69 399.08 267.75 406.87 264.25C414.66 260.75 421 258 421.08 258.14Z" fill="#EB4143"/>
<path d="M423.38 235.11C423.43 235.24 417.17 238.19 409.38 241.69C401.59 245.19 395.23 247.92 395.17 247.79C395.11 247.66 401.38 244.72 409.17 241.21C416.96 237.7 423.32 235 423.38 235.11Z" fill="#EB4143"/>
<path d="M418.79 214.6C418.85 214.73 412.58 217.68 404.79 221.18C397 224.68 390.64 227.41 390.58 227.28C390.52 227.15 396.78 224.2 404.58 220.7C412.38 217.2 418.73 214.47 418.79 214.6Z" fill="#EB4143"/>
<path d="M418.79 192.52C418.85 192.65 412.58 195.6 404.79 199.1C397 202.6 390.64 205.33 390.58 205.2C390.52 205.07 396.78 202.12 404.58 198.62C412.38 195.12 418.73 192.39 418.79 192.52Z" fill="#EB4143"/>
<path d="M416.5 171.73C416.56 171.86 410.29 174.8 402.5 178.3C394.71 181.8 388.35 184.54 388.29 184.41C388.23 184.28 394.49 181.33 402.29 177.83C410.09 174.33 416.44 171.6 416.5 171.73Z" fill="#EB4143"/>
<path d="M396.75 157.24C394.004 158.761 391.177 160.13 388.28 161.34C385.452 162.705 382.551 163.914 379.59 164.96C382.332 163.432 385.16 162.063 388.06 160.86C390.888 159.495 393.789 158.286 396.75 157.24Z" fill="#EB4143"/>
<path d="M386.19 148.37C383.441 149.883 380.614 151.248 377.72 152.46C374.892 153.825 371.991 155.034 369.03 156.08C371.776 154.566 374.604 153.204 377.5 152C380.328 150.631 383.229 149.42 386.19 148.37Z" fill="#EB4143"/>
<path d="M287.68 195.91C287.73 196.04 281.82 198.39 274.48 201.15C267.14 203.91 261.14 206.04 261.09 205.9C261.04 205.76 266.95 203.42 274.3 200.66C281.65 197.9 287.63 195.78 287.68 195.91Z" fill="#EB4143"/>
<path d="M295 166.07C295.06 166.2 288.64 168.73 280.69 171.73C272.74 174.73 266.23 177.03 266.18 176.9C266.13 176.77 272.54 174.23 280.5 171.24C288.46 168.25 295 165.93 295 166.07Z" fill="#EB4143"/>
<path d="M314.27 136.53C314.32 136.67 306.19 139.84 296.11 143.63C286.03 147.42 277.82 150.38 277.77 150.25C277.72 150.12 285.85 146.93 295.93 143.14C306.01 139.35 314.22 136.4 314.27 136.53Z" fill="#EB4143"/>
<path d="M456.31 325L455.89 324.86L454.69 324.39C454.16 324.2 453.47 324.05 452.69 323.83C451.756 323.648 450.81 323.531 449.86 323.48C445.59 323.21 439.19 324.76 433 329.4C429.649 331.939 426.646 334.908 424.07 338.23C421.2 341.74 418.39 345.71 415.2 349.71C411.954 354.001 408.069 357.768 403.68 360.88C398.875 364.121 393.446 366.321 387.74 367.34C382.034 368.368 376.175 368.173 370.55 366.77C365.358 365.408 360.313 363.536 355.49 361.18C350.84 359.03 346.49 356.84 342.35 355.03C338.5 353.329 334.503 351.981 330.41 351C327.035 350.203 323.578 349.807 320.11 349.82C317.493 349.84 314.888 350.193 312.36 350.87C310.77 351.337 309.224 351.942 307.74 352.68L306.6 353.28C306.474 353.358 306.34 353.422 306.2 353.47L306.57 353.24L307.69 352.59C309.161 351.805 310.705 351.165 312.3 350.68C314.84 349.963 317.461 349.577 320.1 349.53C323.595 349.485 327.083 349.858 330.49 350.64C334.603 351.608 338.619 352.947 342.49 354.64C346.67 356.44 351.02 358.64 355.66 360.76C360.465 363.092 365.49 364.941 370.66 366.28C376.223 367.669 382.018 367.86 387.66 366.84C393.295 365.832 398.659 363.663 403.41 360.47C407.766 357.394 411.624 353.667 414.85 349.42C418.04 345.42 420.85 341.48 423.76 337.96C426.359 334.628 429.385 331.653 432.76 329.11C439.04 324.47 445.53 322.95 449.85 323.29C450.811 323.353 451.767 323.483 452.71 323.68C453.51 323.93 454.2 324.09 454.71 324.3L455.9 324.82L456.31 325Z" fill="white"/>
<path d="M462.62 258.3C462.62 258.35 461.91 258.44 460.67 258.85C458.946 259.481 457.32 260.353 455.84 261.44C453.94 262.77 451.84 264.63 449.43 266.55C446.77 268.625 443.89 270.399 440.84 271.84C435.306 274.493 429.307 276.042 423.18 276.4C422.01 276.5 420.94 276.47 420.01 276.49C419.08 276.51 418.28 276.43 417.63 276.38L416.12 276.23C415.946 276.227 415.774 276.197 415.61 276.14C415.782 276.116 415.957 276.116 416.13 276.14L417.64 276.19H420.01C420.94 276.14 422.01 276.19 423.15 276.03C429.211 275.562 435.134 273.979 440.62 271.36C443.633 269.928 446.489 268.185 449.14 266.16C451.57 264.28 453.68 262.43 455.64 261.16C457.168 260.078 458.855 259.242 460.64 258.68C461.126 258.542 461.62 258.435 462.12 258.36C462.283 258.314 462.451 258.294 462.62 258.3Z" fill="white"/>
<path d="M332 281.47C331.818 281.462 331.637 281.435 331.46 281.39C331.1 281.31 330.57 281.23 329.9 281.04C328.022 280.484 326.221 279.695 324.54 278.69C322.074 277.176 319.733 275.467 317.54 273.58C315.03 271.5 312.35 269.13 309.28 267.01C306.414 264.984 303.196 263.509 299.79 262.66C295.111 261.508 290.219 261.529 285.55 262.72C284.22 263.06 283.5 263.32 283.49 263.27C283.644 263.169 283.813 263.091 283.99 263.04C284.33 262.91 284.83 262.71 285.5 262.52C287.373 261.972 289.302 261.636 291.25 261.52C294.153 261.306 297.071 261.545 299.9 262.23C303.371 263.072 306.651 264.561 309.57 266.62C312.68 268.77 315.36 271.16 317.85 273.25C320.011 275.143 322.31 276.872 324.73 278.42C326.376 279.435 328.13 280.264 329.96 280.89C330.65 281.047 331.331 281.241 332 281.47Z" fill="white"/>
<path d="M332.17 186.94C331.632 187.19 331.073 187.394 330.5 187.55C329.844 187.781 329.176 187.978 328.5 188.14C327.71 188.34 326.82 188.61 325.81 188.79C324.8 188.97 323.71 189.22 322.51 189.37C321.31 189.52 320.04 189.66 318.69 189.78C315.758 189.966 312.816 189.929 309.89 189.67C306.966 189.378 304.068 188.866 301.22 188.14C299.92 187.77 298.67 187.43 297.54 187.02C296.41 186.61 295.35 186.23 294.41 185.84C293.47 185.45 292.63 185.04 291.89 184.7C291.15 184.36 290.54 184.03 290.04 183.75C289.511 183.486 289.003 183.182 288.52 182.84C289.074 183.044 289.612 183.288 290.13 183.57C290.64 183.82 291.27 184.13 292.01 184.44C292.75 184.75 293.59 185.15 294.55 185.49C295.51 185.83 296.55 186.26 297.68 186.61C298.81 186.96 300.04 187.32 301.34 187.67C306.996 189.096 312.837 189.646 318.66 189.3C320 189.19 321.27 189.12 322.46 188.94C323.65 188.76 324.74 188.61 325.74 188.43C326.74 188.25 327.63 188.03 328.42 187.86C329.21 187.69 329.89 187.51 330.42 187.36C330.993 187.178 331.577 187.038 332.17 186.94Z" fill="white"/>
<path d="M456.94 186.69C456.793 186.636 456.652 186.565 456.52 186.48L455.36 185.81C454.758 185.444 454.137 185.11 453.5 184.81C452.678 184.369 451.834 183.972 450.97 183.62L449.47 182.99C448.94 182.78 448.38 182.62 447.8 182.42C446.66 182 445.39 181.71 444.06 181.36C438.246 180.037 432.215 179.986 426.38 181.21C425.11 181.479 423.855 181.813 422.62 182.21C422.04 182.4 421.47 182.55 420.94 182.75L419.43 183.35C418.561 183.69 417.71 184.074 416.88 184.5C416.236 184.793 415.611 185.127 415.01 185.5L413.83 186.15C413.56 186.29 413.41 186.36 413.4 186.34C413.514 186.23 413.642 186.136 413.78 186.06L414.9 185.32C415.492 184.926 416.11 184.572 416.75 184.26C417.571 183.799 418.419 183.388 419.29 183.03L420.8 182.39C421.33 182.18 421.91 182.02 422.49 181.82C423.733 181.401 424.998 181.05 426.28 180.77C432.179 179.476 438.295 179.531 444.17 180.93C445.51 181.29 446.79 181.6 447.94 182.04C448.52 182.25 449.09 182.42 449.61 182.65L451.12 183.31C451.981 183.691 452.822 184.115 453.64 184.58C454.27 184.907 454.878 185.274 455.46 185.68L456.58 186.44C456.83 186.57 457 186.67 456.94 186.69Z" fill="white"/>
<path d="M395.8 118.76C395.575 118.93 395.334 119.077 395.08 119.2L393 120.35C391.15 121.35 388.47 122.74 385.11 124.42C378.41 127.73 369 132.26 357.86 135.08C352.623 136.396 347.258 137.141 341.86 137.3C337.454 137.429 333.049 137.05 328.73 136.17C325.819 135.586 322.972 134.718 320.23 133.58C319.23 133.2 318.54 132.8 318.04 132.58C317.781 132.469 317.53 132.338 317.29 132.19C317.564 132.261 317.828 132.361 318.08 132.49C318.6 132.68 319.32 133.05 320.31 133.4C323.062 134.46 325.903 135.27 328.8 135.82C333.099 136.641 337.476 136.977 341.85 136.82C347.205 136.634 352.525 135.88 357.72 134.57C368.79 131.77 378.21 127.32 384.94 124.09L392.94 120.16L395 119.1C395.259 118.969 395.526 118.856 395.8 118.76Z" fill="white"/>
<path d="M195.06 293L228.49 294.46L226.94 329.89L193.51 328.43L190.94 387.3L146.94 385.38L149.51 326.51L36 321.55L36.09 294.55L157.09 120.75L202.51 122.75L195.06 293ZM80.06 288L151.06 291.1L155.74 183.72L154.67 183.31L150.67 190.96L80.06 288Z" fill="#EB4143"/>
<g opacity="0.4">
<path d="M195.06 293L228.49 294.46L226.94 329.89L193.51 328.43L190.94 387.3L146.94 385.38L149.51 326.51L36 321.55L36.09 294.55L157.09 120.75L202.51 122.75L195.06 293ZM80.06 288L151.06 291.1L155.74 183.72L154.67 183.31L150.67 190.96L80.06 288Z" fill="black"/>
</g>
<path d="M223 294.22L256.43 295.68L254.88 331.11L221.45 329.65L218.88 388.52L174.88 386.6L177.45 327.73L63.89 322.73L63.98 295.73L185 122L230.43 124L223 294.22ZM108 289.22L179.05 292.32L183.73 184.94L182.66 184.53L178.66 192.18L108 289.22Z" fill="#EB4143"/>
<path d="M64.59 300.92C64.2541 301.163 63.8918 301.368 63.51 301.53C62.8 301.89 61.76 302.39 60.51 302.99C57.94 304.2 54.35 305.81 50.34 307.51C46.33 309.21 42.68 310.65 40.02 311.66C38.69 312.16 37.6 312.55 36.85 312.81C36.4662 312.969 36.0676 313.09 35.66 313.17C36.0109 312.944 36.3867 312.759 36.78 312.62L39.88 311.31L50.1 307L60.32 302.63L63.43 301.31C63.8024 301.141 64.1911 301.01 64.59 300.92Z" fill="#EB4143"/>
<path d="M80.87 271C80.3854 271.298 79.8809 271.562 79.36 271.79C78.36 272.27 76.94 272.95 75.16 273.79C71.59 275.41 66.64 277.58 61.16 279.91C55.68 282.24 50.61 284.23 47 285.65C45.18 286.37 43.7 286.93 42.66 287.3C42.1374 287.523 41.5951 287.698 41.04 287.82C41.5395 287.548 42.0574 287.31 42.59 287.11L46.86 285.31L60.97 279.38L75.05 273.38L79.32 271.57C79.8178 271.332 80.3367 271.141 80.87 271Z" fill="#EB4143"/>
<path d="M100.74 244.27C100.237 244.581 99.7083 244.848 99.16 245.07C98.16 245.55 96.63 246.23 94.77 247.07C91.04 248.7 85.87 250.87 80.13 253.2C74.39 255.53 69.13 257.56 65.34 258.99C63.44 259.7 61.89 260.26 60.82 260.63C60.2736 260.854 59.708 261.028 59.13 261.15C59.654 260.878 60.1952 260.641 60.75 260.44L65.21 258.64L79.93 252.71L94.62 246.71L99.08 244.9C99.6163 244.648 100.171 244.437 100.74 244.27Z" fill="#EB4143"/>
<path d="M180.33 275.11C179.989 275.346 179.624 275.544 179.24 275.7C178.53 276.05 177.49 276.53 176.19 277.11C173.61 278.28 170.01 279.83 166 281.46C161.99 283.09 158.32 284.46 155.66 285.46C154.32 285.94 153.24 286.32 152.49 286.57C152.105 286.717 151.706 286.828 151.3 286.9C151.648 286.684 152.021 286.509 152.41 286.38L155.53 285.12L165.81 281L176.05 276.8L179.16 275.53C179.533 275.347 179.926 275.207 180.33 275.11Z" fill="#EB4143"/>
<path d="M177.09 330.05C176.763 330.285 176.411 330.483 176.04 330.64C175.35 330.98 174.34 331.47 173.09 332.05C170.59 333.22 167.09 334.77 163.22 336.39C159.35 338.01 155.77 339.39 153.22 340.39C151.92 340.87 150.87 341.25 150.14 341.49C149.767 341.646 149.378 341.76 148.98 341.83C149.319 341.613 149.681 341.436 150.06 341.3L153.06 340.04L163.06 335.93L172.98 331.73L175.98 330.47C176.334 330.292 176.706 330.151 177.09 330.05Z" fill="#EB4143"/>
<path d="M176.63 349.31C176.32 349.54 175.984 349.735 175.63 349.89C174.94 350.24 173.93 350.72 172.63 351.31C170.13 352.47 166.63 354.02 162.75 355.65C158.87 357.28 155.31 358.65 152.75 359.65C151.46 360.13 150.41 360.51 149.67 360.76C149.303 360.92 148.916 361.031 148.52 361.09C148.862 360.882 149.224 360.708 149.6 360.57L152.6 359.31L162.6 355.2L172.53 351L175.53 349.74C175.877 349.552 176.247 349.407 176.63 349.31Z" fill="#EB4143"/>
<path d="M176.17 368.56C175.857 368.789 175.522 368.987 175.17 369.15C174.48 369.5 173.47 369.98 172.17 370.56C169.66 371.73 166.17 373.28 162.29 374.9C158.41 376.52 154.85 377.9 152.29 378.9C151 379.38 149.94 379.76 149.21 380C148.84 380.153 148.454 380.267 148.06 380.34C148.399 380.123 148.761 379.945 149.14 379.81L152.14 378.56L162.14 374.44L172.07 370.24L175.07 368.98C175.42 368.8 175.789 368.659 176.17 368.56Z" fill="#EB4143"/>
<path d="M180.85 254.77C180.506 255.001 180.141 255.199 179.76 255.36C179.05 255.71 178.01 256.19 176.76 256.77C174.18 257.94 170.58 259.49 166.57 261.12C162.56 262.75 158.89 264.12 156.23 265.12C154.89 265.6 153.81 265.98 153.06 266.22C152.676 266.373 152.277 266.487 151.87 266.56C152.216 266.337 152.589 266.159 152.98 266.03L156.1 264.77L166.38 260.66L176.62 256.46L179.73 255.2C180.087 255.017 180.462 254.873 180.85 254.77Z" fill="#EB4143"/>
<path d="M181.37 234.43C181.026 234.661 180.661 234.859 180.28 235.02C179.57 235.36 178.53 235.85 177.23 236.43C174.65 237.6 171.05 239.15 167.04 240.77C163.03 242.39 159.37 243.77 156.7 244.77C155.36 245.25 154.28 245.62 153.53 245.87C153.146 246.023 152.747 246.137 152.34 246.21C152.689 245.986 153.066 245.808 153.46 245.68L156.57 244.42L166.85 240.31L177.09 236.11L180.2 234.85C180.573 234.667 180.966 234.527 181.37 234.43Z" fill="#EB4143"/>
<path d="M181.89 214.09C181.576 214.31 181.241 214.497 180.89 214.65C180.22 214.98 179.23 215.44 178 216C175.53 217.12 172.11 218.61 168.29 220.15C164.47 221.69 160.97 223.02 158.43 223.93C157.16 224.38 156.13 224.74 155.43 224.93C155.063 225.079 154.681 225.186 154.29 225.25C154.626 225.039 154.985 224.868 155.36 224.74L158.36 223.54L168.15 219.63L177.91 215.63L180.91 214.43C181.223 214.28 181.552 214.166 181.89 214.09Z" fill="#EB4143"/>
<path d="M184.19 195.08C182.593 195.944 180.919 196.657 179.19 197.21C177.516 197.923 175.778 198.475 174 198.86C175.597 197.993 177.27 197.276 179 196.72C180.673 196.007 182.411 195.458 184.19 195.08Z" fill="#EB4143"/>
<path d="M120.57 216.59C120.066 216.893 119.541 217.16 119 217.39C118 217.87 116.47 218.54 114.6 219.39C110.88 221.02 105.71 223.19 99.9601 225.52C94.2101 227.85 88.9601 229.89 85.1801 231.31C83.2801 232.02 81.7301 232.58 80.6601 232.95C80.1094 233.165 79.5448 233.342 78.9701 233.48C79.4885 233.194 80.0305 232.953 80.5901 232.76L85.0501 230.97L99.7701 225L114.46 219L118.91 217.19C119.45 216.953 120.004 216.753 120.57 216.59Z" fill="#EB4143"/>
<path d="M140.41 188.9C139.907 189.211 139.378 189.478 138.83 189.7C137.83 190.18 136.3 190.86 134.44 191.7C130.72 193.32 125.54 195.5 119.8 197.82C114.06 200.14 108.8 202.19 105.02 203.61C103.11 204.33 101.57 204.89 100.49 205.26C99.9462 205.482 99.3841 205.656 98.8101 205.78C99.3286 205.504 99.8667 205.267 100.42 205.07L104.88 203.27L119.6 197.34L134.3 191.34L138.75 189.52C139.287 189.273 139.842 189.065 140.41 188.9Z" fill="#EB4143"/>
<path d="M158.74 161.22C158.233 161.524 157.705 161.791 157.16 162.02C156.16 162.5 154.63 163.17 152.77 164.02C149.05 165.65 143.87 167.82 138.13 170.15C132.39 172.48 127.13 174.52 123.35 175.94C121.45 176.65 119.9 177.21 118.83 177.58C118.279 177.795 117.715 177.972 117.14 178.11C117.658 177.824 118.2 177.583 118.76 177.39L123.22 175.6L137.94 169.67L152.63 163.67L157.08 161.86C157.613 161.598 158.169 161.384 158.74 161.22Z" fill="#EB4143"/>
<path d="M177.82 134.6C177.311 134.901 176.784 135.168 176.24 135.4C175.24 135.88 173.71 136.55 171.85 137.4C168.12 139.03 162.95 141.2 157.21 143.53C151.47 145.86 146.21 147.9 142.42 149.32C140.52 150.03 138.98 150.59 137.9 150.96C137.351 151.178 136.786 151.355 136.21 151.49C136.73 151.207 137.271 150.966 137.83 150.77L142.29 148.98L157 143L171.69 137L176.15 135.19C176.691 134.952 177.25 134.755 177.82 134.6Z" fill="#EB4143"/>
<path d="M228.44 175.27C228.273 175.512 228.078 175.733 227.86 175.93C227.294 176.551 226.69 177.136 226.05 177.68C223.718 179.716 221.1 181.401 218.28 182.68C214.074 184.57 209.53 185.59 204.92 185.68C202.195 185.73 199.476 185.424 196.83 184.77C194.006 184.047 191.267 183.024 188.66 181.72C183.28 179.1 178.5 176.01 173.83 173.86C169.737 171.853 165.282 170.69 160.73 170.44C157.663 170.283 154.603 170.855 151.8 172.11C151.044 172.464 150.319 172.879 149.63 173.35C149.395 173.524 149.148 173.681 148.89 173.82C149.103 173.621 149.331 173.437 149.57 173.27C150.242 172.76 150.958 172.311 151.71 171.93C154.515 170.59 157.604 169.952 160.71 170.07C165.326 170.289 169.849 171.449 174 173.48C178.72 175.63 183.52 178.71 188.85 181.31C191.432 182.588 194.14 183.594 196.93 184.31C199.529 184.958 202.201 185.267 204.88 185.23C212.557 185.124 219.967 182.397 225.88 177.5C226.73 176.82 227.33 176.22 227.75 175.83C227.965 175.625 228.196 175.438 228.44 175.27Z" fill="white"/>
<path d="M214.52 125.83C214.117 126.11 213.692 126.357 213.25 126.57C212.42 127.02 211.18 127.57 209.62 128.27C207.791 129.039 205.922 129.707 204.02 130.27C199.36 131.661 194.54 132.448 189.68 132.61C187.679 132.683 185.676 132.643 183.68 132.49C181.99 132.36 180.68 132.2 179.68 132.03C179.192 131.975 178.711 131.878 178.24 131.74C178.732 131.723 179.224 131.753 179.71 131.83C180.64 131.94 182 132.04 183.71 132.12C185.42 132.2 187.4 132.22 189.62 132.12C192.025 132.001 194.421 131.754 196.8 131.38C199.159 130.975 201.496 130.447 203.8 129.8C205.93 129.18 207.8 128.54 209.39 127.92C210.98 127.3 212.21 126.77 213.07 126.38C213.535 126.151 214.02 125.967 214.52 125.83Z" fill="white"/>
<path d="M143.52 236.89C143.19 236.585 142.889 236.25 142.62 235.89L140.26 233.07C137.626 230.005 134.829 227.084 131.88 224.32C130.279 222.802 128.519 221.461 126.63 220.32C125.085 219.396 123.394 218.74 121.63 218.38C119.993 218.088 118.317 218.088 116.68 218.38C116.68 218.38 116.79 218.32 117.01 218.25C117.335 218.142 117.67 218.065 118.01 218.02C119.238 217.814 120.492 217.814 121.72 218.02C123.542 218.337 125.293 218.977 126.89 219.91C128.831 221.054 130.633 222.42 132.26 223.98C135.23 226.75 138.003 229.724 140.56 232.88C141.56 234.09 142.3 235.1 142.8 235.8C143.078 236.137 143.32 236.502 143.52 236.89Z" fill="white"/>
<path d="M223.29 267.1C223.29 267.1 223.16 267.22 222.9 267.4C222.64 267.58 222.25 267.87 221.71 268.17C220.209 269.05 218.632 269.797 217 270.4C211.592 272.442 205.716 272.911 200.053 271.752C194.39 270.593 189.171 267.853 185 263.85C183.736 262.662 182.584 261.36 181.56 259.96C181.19 259.47 180.95 259.06 180.77 258.79C180.59 258.52 180.51 258.37 180.53 258.36C180.953 258.831 181.35 259.325 181.72 259.84C182.801 261.174 183.981 262.424 185.25 263.58C189.424 267.438 194.574 270.08 200.143 271.221C205.711 272.361 211.485 271.956 216.84 270.05C218.462 269.488 220.036 268.799 221.55 267.99C222.113 267.662 222.694 267.365 223.29 267.1Z" fill="white"/>
<path d="M252.42 330.42C252.42 330.42 252.32 330.27 252.14 329.95C251.96 329.63 251.68 329.17 251.34 328.57C250.337 326.792 249.193 325.096 247.92 323.5L246.56 321.9L245.83 321.03L244.98 320.2L243.18 318.42L241.08 316.68C237.726 314.015 234.026 311.818 230.08 310.15C225.317 308.136 220.243 306.955 215.08 306.66C209.137 306.341 203.194 307.296 197.65 309.46C191.8 311.76 186.15 315.23 180.17 318.59C177.141 320.34 174.005 321.896 170.78 323.25C167.438 324.657 163.913 325.583 160.31 326C156.705 326.363 153.065 326.143 149.53 325.35C146.108 324.597 142.779 323.474 139.6 322C133.646 319.119 127.98 315.677 122.68 311.72C117.55 308.07 112.68 304.54 107.87 301.72C103.448 299.012 98.6539 296.964 93.64 295.64C89.4854 294.617 85.1832 294.333 80.93 294.8C77.7189 295.133 74.5932 296.038 71.7 297.47C69.8901 298.397 68.2091 299.557 66.7 300.92L65.54 302C65.29 302.25 65.15 302.37 65.15 302.37C65.15 302.37 65.26 302.23 65.51 301.96L66.6 300.79C68.0998 299.388 69.7816 298.194 71.6 297.24C74.5072 295.761 77.6578 294.819 80.9 294.46C85.1886 293.957 89.5324 294.217 93.73 295.23C98.784 296.547 103.621 298.588 108.09 301.29C112.96 304.11 117.82 307.63 122.96 311.29C128.241 315.217 133.883 318.632 139.81 321.49C142.951 322.963 146.244 324.086 149.63 324.84C153.116 325.619 156.705 325.836 160.26 325.48C163.806 325.069 167.277 324.16 170.57 322.78C173.775 321.432 176.894 319.889 179.91 318.16C185.91 314.81 191.55 311.33 197.45 309.02C198.906 308.448 200.395 307.967 201.91 307.58C202.66 307.39 203.4 307.16 204.14 307.01L206.38 306.64C209.259 306.211 212.174 306.077 215.08 306.24C220.305 306.551 225.437 307.763 230.25 309.82C234.198 311.529 237.898 313.762 241.25 316.46C241.97 317.07 242.67 317.67 243.35 318.23L245.14 320.04L245.98 320.88C246.23 321.18 246.48 321.47 246.71 321.76C247.19 322.33 247.64 322.87 248.06 323.39C249.323 325.003 250.444 326.723 251.41 328.53C251.737 329.143 251.987 329.613 252.16 329.94C252.35 330.25 252.42 330.42 252.42 330.42Z" fill="white"/>
<path d="M222.2 372.19C222.036 372.256 221.865 372.299 221.69 372.32L220.21 372.6C219.433 372.757 218.649 372.874 217.86 372.95C216.94 373.04 215.86 373.19 214.72 373.22L212.88 373.3C212.25 373.3 211.58 373.3 210.88 373.3C209.51 373.3 208.04 373.17 206.5 373.05C203.162 372.685 199.861 372.043 196.63 371.13C193.414 370.162 190.284 368.931 187.27 367.45C185.91 366.72 184.6 366.05 183.44 365.3C182.86 364.94 182.28 364.61 181.75 364.3L180.25 363.25C179.25 362.6 178.48 361.91 177.75 361.33C177.119 360.846 176.515 360.329 175.94 359.78C175.51 359.36 175.14 359.02 174.85 358.78C174.714 358.665 174.593 358.534 174.49 358.39C174.645 358.476 174.789 358.58 174.92 358.7L176.08 359.7C176.57 360.12 177.18 360.63 177.93 361.17C178.68 361.71 179.48 362.39 180.46 363.02L181.97 364.02C182.5 364.37 183.08 364.69 183.66 365.02C184.82 365.75 186.13 366.4 187.49 367.11C193.471 370.058 199.921 371.936 206.55 372.66C208.08 372.79 209.55 372.95 210.9 372.96C211.58 372.96 212.24 373.02 212.9 372.96H214.72C215.88 372.96 216.93 372.83 217.85 372.77C218.77 372.71 219.56 372.61 220.2 372.51L221.69 372.33C221.852 372.258 222.024 372.211 222.2 372.19Z" fill="white"/>
<path d="M629.32 293.41L662.62 290.16L666.07 325.45L632.77 328.71L638.5 387.35L594.7 391.64L589 333L475.84 344.06L472.13 317.33L567.48 128.24L612.73 123.81L629.32 293.41ZM514.74 304.62L585.51 297.7L575.05 190.7L573.93 190.45L571.07 198.59L514.74 304.62Z" fill="#EB4143"/>
<g opacity="0.4">
<path d="M629.32 293.41L662.62 290.16L666.07 325.45L632.77 328.71L638.5 387.35L594.7 391.64L589 333L475.84 344.06L472.13 317.33L567.48 128.24L612.73 123.81L629.32 293.41ZM514.74 304.62L585.51 297.7L575.05 190.7L573.93 190.45L571.07 198.59L514.74 304.62Z" fill="black"/>
</g>
<path d="M657.17 290.69L690.47 287.43L693.93 322.73L660.62 326L666.36 384.65L622.55 388.93L616.82 330.29L503.69 341.33L500 314.61L595.35 125.52L640.6 121.09L657.17 290.69ZM542.6 301.89L613.37 295L602.91 188L601.78 187.74L598.93 195.88L542.6 301.89Z" fill="#EB4143"/>
<path d="M501.26 319.61C500.954 319.894 500.619 320.145 500.26 320.36C499.61 320.82 498.65 321.46 497.46 322.24C495.07 323.8 491.75 325.9 488.02 328.14C484.29 330.38 480.88 332.33 478.38 333.7C477.14 334.38 476.12 334.93 475.38 335.29C475.022 335.502 474.643 335.676 474.25 335.81C474.554 335.537 474.89 335.302 475.25 335.11L478.14 333.38L487.7 327.69L497.2 321.93L500.09 320.19C500.456 319.952 500.849 319.757 501.26 319.61Z" fill="#EB4143"/>
<path d="M513.16 287.67C512.727 288.039 512.265 288.373 511.78 288.67C510.88 289.28 509.55 290.15 507.9 291.21C504.6 293.32 500 296.21 494.9 299.21C489.8 302.21 485.1 305.02 481.69 306.94C479.99 307.94 478.6 308.67 477.63 309.18C477.139 309.466 476.627 309.717 476.1 309.93C476.551 309.582 477.029 309.271 477.53 309L481.53 306.62L494.66 298.77L507.75 290.86L511.75 288.47C512.199 288.168 512.67 287.901 513.16 287.67Z" fill="#EB4143"/>
<path d="M529.08 258.44C528.623 258.81 528.138 259.145 527.63 259.44C526.63 260.06 525.29 260.94 523.56 262.01C520.1 264.14 515.28 267.01 509.92 270.13C504.56 273.25 499.67 276 496.1 278C494.32 279 492.87 279.75 491.86 280.27C491.346 280.56 490.811 280.811 490.26 281.02C490.736 280.673 491.237 280.362 491.76 280.09L495.92 277.68L509.66 269.74L523.37 261.74L527.52 259.32C528.017 258.987 528.538 258.693 529.08 258.44Z" fill="#EB4143"/>
<path d="M612.22 277.78C611.914 278.059 611.579 278.304 611.22 278.51C610.57 278.96 609.6 279.58 608.41 280.34C606.01 281.86 602.67 283.9 598.93 286.08C595.19 288.26 591.75 290.14 589.24 291.46C587.99 292.13 586.97 292.65 586.24 293C585.882 293.207 585.504 293.374 585.11 293.5C585.418 293.239 585.754 293.011 586.11 292.82L589.02 291.14L598.61 285.62L608.16 280.03L611.07 278.34C611.431 278.11 611.817 277.922 612.22 277.78Z" fill="#EB4143"/>
<path d="M616.74 332.62C616.437 332.903 616.102 333.148 615.74 333.35C615.11 333.79 614.18 334.41 613.02 335.17C610.71 336.67 607.48 338.7 603.86 340.86C600.24 343.02 596.91 344.86 594.48 346.2C593.27 346.86 592.28 347.38 591.59 347.73C591.244 347.937 590.875 348.102 590.49 348.22C590.799 347.962 591.134 347.738 591.49 347.55L594.3 345.88L603.59 340.41L612.83 334.85L615.64 333.18C615.983 332.95 616.352 332.762 616.74 332.62Z" fill="#EB4143"/>
<path d="M619 351.75C618.697 352.033 618.362 352.278 618 352.48C617.37 352.92 616.44 353.54 615.28 354.3C612.97 355.8 609.74 357.83 606.12 359.98C602.5 362.13 599.17 363.98 596.74 365.33C595.53 365.99 594.54 366.51 593.85 366.86C593.504 367.067 593.135 367.232 592.75 367.35C593.059 367.092 593.394 366.868 593.75 366.68L596.56 365.01L605.85 359.54L615.09 353.98L617.9 352.31C618.243 352.08 618.612 351.892 619 351.75Z" fill="#EB4143"/>
<path d="M621.24 370.88C620.937 371.163 620.602 371.408 620.24 371.61C619.61 372.05 618.68 372.67 617.52 373.42C615.21 374.93 611.98 376.96 608.36 379.11C604.74 381.26 601.41 383.11 598.98 384.46C597.77 385.12 596.78 385.64 596.09 385.99C595.742 386.191 595.373 386.356 594.99 386.48C595.299 386.222 595.634 385.998 595.99 385.81L598.8 384.14L608.09 378.67L617.33 373.11L620.14 371.44C620.483 371.21 620.852 371.022 621.24 370.88Z" fill="#EB4143"/>
<path d="M609.87 257.56C609.563 257.84 609.228 258.088 608.87 258.3C608.21 258.74 607.25 259.37 606.05 260.13C603.65 261.64 600.31 263.69 596.57 265.86C592.83 268.03 589.39 269.92 586.89 271.25C585.63 271.91 584.61 272.44 583.89 272.79C583.532 272.997 583.153 273.164 582.76 273.29C583.07 273.031 583.405 272.803 583.76 272.61L586.66 270.93L596.26 265.41L605.81 259.81L608.71 258.13C609.076 257.9 609.464 257.709 609.87 257.56Z" fill="#EB4143"/>
<path d="M607.52 237.35C607.216 237.633 606.88 237.882 606.52 238.09C605.86 238.53 604.9 239.15 603.7 239.91C601.31 241.43 597.97 243.48 594.22 245.65C590.47 247.82 587.05 249.71 584.54 251.04C583.29 251.7 582.27 252.23 581.54 252.58C581.185 252.79 580.806 252.955 580.41 253.07C580.718 252.81 581.053 252.586 581.41 252.4L584.31 250.71L593.91 245.2L603.46 239.6L606.36 237.91C606.727 237.684 607.115 237.497 607.52 237.35Z" fill="#EB4143"/>
<path d="M605.18 217.14C604.895 217.409 604.579 217.644 604.24 217.84C603.61 218.27 602.69 218.84 601.55 219.59C599.28 221.04 596.1 222.99 592.55 225.06C589 227.13 585.71 228.93 583.32 230.19L580.47 231.65C580.128 231.846 579.766 232.003 579.39 232.12C579.701 231.87 580.036 231.653 580.39 231.47L583.15 229.86L592.3 224.61L601.39 219.27L604.16 217.67C604.479 217.456 604.822 217.278 605.18 217.14Z" fill="#EB4143"/>
<path d="M604.78 198C603.321 199.088 601.76 200.032 600.12 200.82C598.559 201.757 596.915 202.551 595.21 203.19C596.669 202.102 598.23 201.158 599.87 200.37C601.43 199.431 603.074 198.637 604.78 198Z" fill="#EB4143"/>
<path d="M544.82 228.24C544.368 228.612 543.887 228.947 543.38 229.24C542.38 229.86 541.03 230.74 539.3 231.81C535.85 233.94 531.03 236.81 525.67 239.93C520.31 243.05 515.42 245.8 511.85 247.74C510.07 248.74 508.61 249.49 507.6 250.01C507.088 250.296 506.557 250.547 506.01 250.76C506.484 250.41 506.986 250.099 507.51 249.83L511.67 247.42L525.41 239.48L539.11 231.48L543.27 229.06C543.766 228.75 544.284 228.476 544.82 228.24Z" fill="#EB4143"/>
<path d="M560.57 198C560.113 198.37 559.628 198.705 559.12 199C558.12 199.62 556.78 200.5 555.05 201.57C551.59 203.7 546.77 206.57 541.42 209.69C536.07 212.81 531.16 215.56 527.59 217.5C525.81 218.5 524.36 219.25 523.35 219.77C522.836 220.06 522.301 220.311 521.75 220.52C522.226 220.173 522.727 219.862 523.25 219.59L527.41 217.18L541.15 209.24L554.86 201.24L559.02 198.82C559.515 198.507 560.033 198.233 560.57 198Z" fill="#EB4143"/>
<path d="M574.83 168.05C574.373 168.42 573.888 168.755 573.38 169.05C572.38 169.67 571.04 170.55 569.31 171.62C565.85 173.75 561.03 176.62 555.67 179.74C550.31 182.86 545.42 185.61 541.85 187.55C540.07 188.55 538.62 189.3 537.61 189.82C537.095 190.108 536.56 190.358 536.01 190.57C536.486 190.223 536.987 189.912 537.51 189.64L541.67 187.23L555.41 179.29L569.12 171.29L573.27 168.87C573.767 168.556 574.289 168.281 574.83 168.05Z" fill="#EB4143"/>
<path d="M590 139C589.543 139.37 589.058 139.705 588.55 140C587.6 140.62 586.21 141.5 584.48 142.57C581.02 144.7 576.2 147.57 570.84 150.7C565.48 153.83 560.59 156.56 557.02 158.51C555.24 159.51 553.79 160.25 552.78 160.77C552.266 161.063 551.732 161.317 551.18 161.53C551.651 161.172 552.153 160.858 552.68 160.59L556.84 158.19L570.58 150.19L584.29 142.19L588.44 139.77C588.94 139.475 589.462 139.218 590 139Z" fill="#EB4143"/>
<path d="M645.81 172.16C645.672 172.417 645.512 172.662 645.33 172.89C644.857 173.59 644.34 174.258 643.78 174.89C641.757 177.243 639.398 179.285 636.78 180.95C632.889 183.433 628.535 185.1 623.98 185.85C621.292 186.28 618.559 186.357 615.85 186.08C612.952 185.761 610.096 185.134 607.33 184.21C601.63 182.38 596.47 179.99 591.54 178.51C587.206 177.116 582.636 176.602 578.1 177C575.041 177.279 572.091 178.276 569.49 179.91C568.786 180.369 568.118 180.881 567.49 181.44C567.289 181.651 567.068 181.842 566.83 182.01C567.008 181.78 567.205 181.566 567.42 181.37C568.013 180.77 568.659 180.224 569.35 179.74C571.948 178.016 574.928 176.952 578.03 176.64C582.629 176.157 587.277 176.62 591.69 178C596.69 179.47 601.85 181.84 607.49 183.67C610.225 184.578 613.047 185.201 615.91 185.53C618.575 185.803 621.263 185.732 623.91 185.32C628.407 184.605 632.715 182.997 636.58 180.59C639.174 178.962 641.529 176.984 643.58 174.71C644.151 174.099 644.688 173.459 645.19 172.79C645.382 172.566 645.589 172.355 645.81 172.16Z" fill="white"/>
<path d="M625.07 125.17C624.715 125.508 624.33 125.812 623.92 126.08C623.16 126.65 622.02 127.4 620.57 128.27C618.869 129.289 617.113 130.214 615.31 131.04C613.096 132.041 610.825 132.912 608.51 133.65C606.186 134.365 603.822 134.943 601.43 135.38C599.477 135.722 597.508 135.962 595.53 136.1C593.84 136.21 592.47 136.23 591.53 136.2C591.038 136.221 590.546 136.191 590.06 136.11C590.542 136.028 591.031 135.991 591.52 136C592.46 136 593.82 135.88 595.52 135.73C597.22 135.58 599.18 135.31 601.36 134.91C603.722 134.446 606.058 133.862 608.36 133.16C610.657 132.428 612.914 131.573 615.12 130.6C617.12 129.69 618.93 128.79 620.39 127.95C621.85 127.11 623.02 126.42 623.81 125.95C624.207 125.654 624.628 125.393 625.07 125.17Z" fill="white"/>
<path d="M570.4 245.11C570.041 244.847 569.707 244.552 569.4 244.23L566.66 241.78C563.624 239.114 560.446 236.613 557.14 234.29C555.341 232.997 553.406 231.904 551.37 231.03C549.711 230.334 547.946 229.924 546.15 229.82C544.487 229.751 542.825 229.974 541.24 230.48C541.24 230.48 541.34 230.4 541.55 230.3C541.854 230.156 542.168 230.036 542.49 229.94C543.681 229.572 544.925 229.407 546.17 229.45C548.017 229.508 549.838 229.894 551.55 230.59C553.63 231.449 555.603 232.546 557.43 233.86C560.763 236.188 563.93 238.744 566.91 241.51C568.05 242.57 568.91 243.51 569.54 244.09C569.864 244.396 570.153 244.738 570.4 245.11Z" fill="white"/>
<path d="M653.62 263.81C653.62 263.81 653.52 263.94 653.28 264.16C653.04 264.38 652.7 264.71 652.21 265.08C650.858 266.168 649.409 267.129 647.88 267.95C642.814 270.718 637.069 271.998 631.307 271.645C625.545 271.291 620 269.317 615.31 265.95C613.895 264.951 612.576 263.823 611.37 262.58C610.93 262.15 610.63 261.78 610.37 261.58C610.251 261.462 610.15 261.327 610.07 261.18C610.07 261.18 610.57 261.64 611.46 262.48C612.708 263.652 614.046 264.725 615.46 265.69C620.13 268.929 625.598 270.828 631.271 271.181C636.944 271.533 642.605 270.326 647.64 267.69C649.168 266.904 650.632 266.002 652.02 264.99C652.531 264.567 653.065 264.173 653.62 263.81Z" fill="white"/>
<path d="M691.38 322.39C691.246 322.268 691.119 322.138 691 322C690.76 321.71 690.44 321.29 690 320.75C688.753 319.132 687.383 317.614 685.9 316.21L684.32 314.81L683.48 314.06L682.48 313.35L680.48 311.85L678.15 310.42C674.464 308.254 670.501 306.599 666.37 305.5C661.363 304.163 656.165 303.697 651 304.12C645.072 304.644 639.324 306.427 634.14 309.35C628.67 312.45 623.57 316.68 618.14 320.85C615.385 323.003 612.499 324.983 609.5 326.78C606.382 328.643 603.015 330.054 599.5 330.97C595.979 331.829 592.343 332.123 588.73 331.84C585.231 331.552 581.773 330.881 578.42 329.84C572.121 327.833 566.029 325.224 560.23 322.05C554.63 319.15 549.34 316.35 544.16 314.24C539.379 312.189 534.327 310.842 529.16 310.24C524.901 309.826 520.602 310.165 516.46 311.24C513.329 312.021 510.362 313.355 507.7 315.18C506.032 316.358 504.52 317.742 503.2 319.3L502.25 320.58C502.03 320.87 501.91 321.01 501.91 321.01C501.91 321.01 502 320.85 502.2 320.55L503.12 319.24C504.408 317.637 505.908 316.217 507.58 315.02C510.244 313.14 513.23 311.764 516.39 310.96C520.564 309.855 524.902 309.5 529.2 309.91C534.39 310.507 539.467 311.855 544.27 313.91C549.49 316.01 554.8 318.81 560.4 321.69C566.178 324.837 572.242 327.429 578.51 329.43C581.83 330.44 585.25 331.087 588.71 331.36C592.27 331.642 595.852 331.352 599.32 330.5C602.775 329.593 606.084 328.203 609.15 326.37C612.134 324.589 615.003 322.621 617.74 320.48C623.18 316.33 628.31 312.09 633.83 308.97C635.193 308.201 636.603 307.516 638.05 306.92C638.76 306.62 639.45 306.3 640.17 306.04L642.33 305.36C645.121 304.53 647.989 303.984 650.89 303.73C656.107 303.31 661.356 303.79 666.41 305.15C670.566 306.269 674.55 307.951 678.25 310.15L680.58 311.6L682.58 313.14L683.58 313.85L684.42 314.62L685.99 316.04C687.446 317.469 688.784 319.014 689.99 320.66C690.39 321.22 690.71 321.66 690.93 321.95L691.38 322.39Z" fill="white"/>
<path d="M667.32 368C667.167 368.082 667.006 368.149 666.84 368.2L665.42 368.69C664.672 368.951 663.911 369.175 663.14 369.36C662.23 369.58 661.22 369.88 660.06 370.07L658.26 370.41C657.63 370.52 656.97 370.58 656.26 370.67C654.9 370.87 653.43 370.94 651.88 371.04C648.538 371.141 645.194 370.971 641.88 370.53C638.56 370.027 635.288 369.244 632.1 368.19C630.64 367.67 629.25 367.19 628 366.61C627.37 366.33 626.75 366.09 626.18 365.81L624.55 364.98C623.49 364.47 622.6 363.9 621.8 363.43C621.111 363.039 620.444 362.612 619.8 362.15L618.57 361.28C618.42 361.188 618.282 361.077 618.16 360.95C618.327 361.008 618.485 361.089 618.63 361.19L619.91 361.98C620.45 362.33 621.13 362.75 621.91 363.18C622.69 363.61 623.61 364.18 624.67 364.65L626.31 365.44C626.88 365.72 627.5 365.95 628.13 366.22C629.38 366.77 630.76 367.22 632.21 367.74C635.407 368.756 638.681 369.512 642 370C645.297 370.446 648.624 370.63 651.95 370.55C653.48 370.46 654.95 370.42 656.29 370.23C656.96 370.15 657.62 370.1 658.29 370L660.09 369.7C661.24 369.54 662.25 369.26 663.16 369.07C664.07 368.88 664.83 368.67 665.45 368.48L666.9 368.09C667.036 368.045 667.177 368.015 667.32 368Z" fill="white"/>
<path d="M459.08 221.54L452.08 220.44L408.71 206.44L383.35 199.11C379.787 197.825 375.996 197.295 372.217 197.553C368.439 197.811 364.755 198.852 361.4 200.61C349.4 206.71 316.34 237.49 316.34 237.49L340.15 262.04L328.94 311.72C341.49 347.4 366.06 351.49 366.06 351.49C378.069 352.003 390.055 350.021 401.26 345.67C424.07 337 448 316.59 451 307.82C452.8 302.56 454.29 291.5 455.47 279.01L491.59 264.29L501.38 214.29L459.08 221.54Z" fill="#455A64"/>
<path d="M406.32 310C406.32 310 406.21 310.12 405.97 310.31C405.73 310.5 405.38 310.79 404.89 311.11C403.525 312.029 402.071 312.81 400.55 313.44C395.489 315.596 389.882 316.125 384.507 314.953C379.132 313.781 374.254 310.967 370.55 306.9C369.422 305.689 368.417 304.369 367.55 302.96C367.24 302.47 367.05 302.06 366.9 301.79C366.821 301.657 366.758 301.517 366.71 301.37C367.073 301.842 367.407 302.337 367.71 302.85C368.624 304.201 369.655 305.469 370.79 306.64C374.491 310.568 379.293 313.287 384.566 314.439C389.839 315.592 395.337 315.125 400.34 313.1C401.857 312.506 403.319 311.779 404.71 310.93C405.77 310.3 406.29 309.94 406.32 310Z" fill="#263238"/>
<path d="M392.6 208.51C392.64 208.585 392.667 208.666 392.68 208.75C392.73 208.94 392.79 209.17 392.86 209.46C393.01 210.08 393.22 211.01 393.47 212.2C394.21 215.568 394.688 218.988 394.9 222.43C395.028 224.818 394.89 227.213 394.49 229.57C394.006 232.289 393.041 234.9 391.64 237.28C390.017 239.853 388.018 242.169 385.71 244.15C383.36 246.25 380.76 248.15 378.11 250.21C372.47 254.44 366.99 258.27 362.11 261.75C357.23 265.23 352.88 268.34 349.42 270.96L349.31 271.05L349.2 270.96C346.759 269.023 344.441 266.936 342.26 264.71C341.67 264.111 341.125 263.469 340.63 262.79C340.46 262.56 340.36 262.37 340.28 262.25C340.239 262.186 340.202 262.119 340.17 262.05C340.17 262.05 340.36 262.29 340.71 262.73C341.236 263.377 341.797 263.994 342.39 264.58C344.614 266.738 346.951 268.778 349.39 270.69H349.17C352.61 268.03 356.91 264.86 361.81 261.37C366.71 257.88 372.17 254.03 377.81 249.8C380.45 247.8 383.05 245.85 385.38 243.8C387.656 241.856 389.631 239.585 391.24 237.06C392.627 234.74 393.585 232.189 394.07 229.53C394.485 227.201 394.642 224.833 394.54 222.47C394.361 219.045 393.94 215.636 393.28 212.27C393.06 211.1 392.89 210.18 392.76 209.51C392.707 209.223 392.667 208.983 392.64 208.79C392.61 208.7 392.596 208.605 392.6 208.51Z" fill="#263238"/>
<path d="M580.93 231C591.08 222.29 594.52 206.62 588.93 194.47L574.63 193C578.229 191.017 581.145 187.993 582.995 184.324C584.846 180.655 585.544 176.513 585 172.44C581.043 176.534 575.906 179.29 570.307 180.321C564.707 181.352 558.925 180.607 553.77 178.19C547.09 174.89 541.67 168.74 534.33 167.45C527.67 166.28 521.12 169.45 514.74 171.67C508.36 173.89 500.64 175.18 495.36 170.95C491.18 167.6 489.88 161.73 490.15 156.37C490.42 151.01 491.97 145.79 492.3 140.44C492.539 135.176 491.626 129.923 489.624 125.049C487.622 120.175 484.58 115.796 480.71 112.22C479.416 107.961 477.106 104.08 473.978 100.912C470.851 97.7441 467.001 95.3839 462.758 94.0348C458.516 92.6856 454.01 92.3881 449.627 93.1677C445.244 93.9473 441.117 95.7807 437.6 98.51C434.47 100.93 431.83 104.06 428.28 105.81C424.28 107.81 419.61 107.81 415.28 108.81C410.95 109.81 406.38 112.75 405.92 117.2L404.17 126.31C403.88 126.96 403.57 127.6 403.17 128.23C399.49 134.69 391.95 138.94 390.3 146.23C389.38 150.3 390.52 154.71 389.15 158.65C387.34 163.84 381.74 166.76 379.15 171.59C375.57 178.23 378 189.86 383.73 194.76C389.46 199.66 401.27 204.86 408.65 206.43C410.65 198.76 412.42 190.56 414.13 182.17C417.13 185.06 420.3 187.81 423.44 190.54C431.65 197.68 440.04 204.93 445.74 214.2C456.57 231.83 456.74 255.2 470.39 270.74C473.06 273.79 476.31 276.5 480.19 277.68C484.07 278.86 488.67 278.23 491.54 275.37C494.93 271.99 495.37 266.29 499.12 263.32C504.12 259.37 511.38 262.52 516.73 265.95C520.61 268.43 524.49 271.05 528.88 272.41C533.27 273.77 538.39 273.68 542.13 271C545.87 268.32 547.51 262.6 544.81 258.87C543.73 257.38 542.12 256.34 541.05 254.87C539.98 253.4 539.67 251 541.14 249.87C542.61 248.74 545.02 249.87 546.77 250.87C551.063 253.393 555.865 254.928 560.825 255.364C565.786 255.8 570.782 255.125 575.449 253.389C580.116 251.653 584.338 248.899 587.809 245.327C591.279 241.755 593.909 237.456 595.51 232.74C590.582 233.478 585.546 232.877 580.93 231Z" fill="#263238"/>
<path d="M572 152.55C572.458 152.883 572.889 153.25 573.29 153.65C574.497 154.773 575.511 156.087 576.29 157.54C576.832 158.599 577.203 159.736 577.39 160.91C577.62 162.431 577.407 163.986 576.775 165.389C576.144 166.792 575.121 167.983 573.83 168.82C573.071 169.312 572.209 169.623 571.31 169.73C570.358 169.831 569.396 169.694 568.51 169.33C564.8 167.81 562.93 163.52 558.92 161.61C555.01 159.54 550.01 159.4 545.21 160.5C540.41 161.6 535.72 164.21 530.99 166.87C526.26 169.53 521.23 172.38 515.44 173.37C512.598 173.92 509.674 173.9 506.84 173.31C505.448 172.993 504.103 172.495 502.84 171.83C501.614 171.158 500.483 170.324 499.48 169.35C497.574 167.412 496.107 165.086 495.18 162.53C494.272 160.105 493.674 157.575 493.4 155C492.87 150 493.29 145.2 493.34 140.77C493.54 136.659 493.132 132.542 492.13 128.55C491.653 126.827 491.014 125.152 490.22 123.55C489.525 122.109 488.713 120.727 487.79 119.42C486.328 117.317 484.611 115.403 482.68 113.72C481.45 112.664 480.143 111.701 478.77 110.84L477.68 110.19L477.32 109.96C477.456 110.01 477.587 110.074 477.71 110.15L478.83 110.75C482.466 112.902 485.602 115.803 488.03 119.26C490.031 122.048 491.536 125.16 492.48 128.46C493.523 132.479 493.958 136.632 493.77 140.78C493.77 145.24 493.34 150 493.88 154.95C494.152 157.48 494.74 159.966 495.63 162.35C496.539 164.836 497.971 167.097 499.83 168.98C500.795 169.925 501.885 170.732 503.07 171.38C504.289 172.014 505.583 172.494 506.92 172.81C509.69 173.377 512.544 173.394 515.32 172.86C521 171.86 525.98 169.07 530.71 166.42C535.44 163.77 540.11 161.16 545.07 160.03C547.47 159.464 549.94 159.256 552.4 159.41C553.578 159.493 554.747 159.683 555.89 159.98C556.999 160.28 558.072 160.699 559.09 161.23C563.24 163.23 565.09 167.57 568.62 168.98C569.426 169.323 570.303 169.462 571.175 169.385C572.047 169.309 572.887 169.018 573.62 168.54C574.964 167.692 576.012 166.448 576.62 164.98C577.147 163.717 577.32 162.334 577.12 160.98C576.966 159.83 576.629 158.713 576.12 157.67C575.381 156.228 574.423 154.909 573.28 153.76C572.89 153.36 572.58 153.07 572.37 152.88C572.16 152.69 572 152.55 572 152.55Z" fill="#263238"/>
<path d="M408.55 210.27C408.55 210.27 408.55 210.12 408.47 209.82C408.418 209.376 408.327 208.938 408.2 208.51C407.74 206.854 406.901 205.327 405.75 204.05C403.893 202.06 401.633 200.488 399.12 199.44C396.22 198.11 392.62 197.44 388.68 196.72C384.74 196 380.27 195.14 376.25 192.46C374.018 190.952 372.143 188.974 370.757 186.664C369.371 184.355 368.508 181.769 368.227 179.09C367.947 176.411 368.257 173.703 369.135 171.157C370.013 168.61 371.438 166.287 373.31 164.35C377.45 160.1 383.31 157.99 388.09 154.26C389.262 153.32 390.316 152.242 391.23 151.05C392.09 149.834 392.739 148.482 393.15 147.05C393.95 144.21 393.88 141.24 394.15 138.35C394.259 136.902 394.527 135.47 394.95 134.08C395.394 132.704 396.112 131.432 397.06 130.34C399.026 128.369 401.502 126.984 404.21 126.34C406.78 125.59 409.34 125.12 411.75 124.46C414.107 123.858 416.338 122.842 418.34 121.46C420.187 120.153 421.846 118.598 423.27 116.84C424.605 115.265 425.85 113.615 427 111.9C429.21 108.56 431.1 105.43 433.11 102.9C434.774 100.716 436.736 98.7773 438.94 97.14C440.341 96.1123 441.897 95.3155 443.55 94.78C444.119 94.5803 444.704 94.4331 445.3 94.34C445.3 94.34 444.69 94.48 443.58 94.88C441.957 95.451 440.432 96.2708 439.06 97.31C436.893 98.957 434.968 100.899 433.34 103.08C431.34 105.58 429.5 108.7 427.34 112.08C426.203 113.856 424.961 115.563 423.62 117.19C422.175 118.983 420.493 120.571 418.62 121.91C416.58 123.296 414.312 124.311 411.92 124.91C409.48 125.59 406.92 126.06 404.39 126.81C401.77 127.423 399.373 128.757 397.47 130.66C396.571 131.7 395.891 132.911 395.47 134.22C395.06 135.574 394.802 136.969 394.7 138.38C394.43 141.24 394.51 144.23 393.7 147.18C393.272 148.657 392.595 150.05 391.7 151.3C390.758 152.527 389.67 153.635 388.46 154.6C386.011 156.404 383.442 158.037 380.77 159.49C378.223 160.896 375.87 162.627 373.77 164.64C371.946 166.526 370.556 168.789 369.698 171.269C368.84 173.748 368.535 176.386 368.803 178.996C369.072 181.607 369.908 184.127 371.253 186.38C372.598 188.633 374.42 190.565 376.59 192.04C380.49 194.67 384.93 195.51 388.84 196.3C392.75 197.09 396.4 197.74 399.32 199.11C401.859 200.19 404.135 201.807 405.99 203.85C407.141 205.161 407.964 206.728 408.39 208.42C408.505 208.855 408.579 209.301 408.61 209.75C408.55 210.12 408.55 210.27 408.55 210.27Z" fill="#263238"/>
<path d="M488.39 120.5C488.128 120.474 487.871 120.406 487.63 120.3C486.947 120.077 486.279 119.809 485.63 119.5C481.3 117.461 477.606 114.285 474.94 110.31C474.54 109.712 474.176 109.091 473.85 108.45C473.707 108.225 473.603 107.979 473.54 107.72C473.61 107.72 474.18 108.64 475.24 110.09C478.016 113.884 481.625 116.99 485.79 119.17C487.38 120 488.43 120.42 488.39 120.5Z" fill="#455A64"/>
<path d="M521.64 188.71C521.64 188.71 521.01 188.55 519.88 188.31C518.28 187.972 516.654 187.771 515.02 187.71C512.598 187.644 510.174 187.714 507.76 187.92C505.02 188.11 502 188.39 498.81 188.32C495.789 188.32 492.795 187.757 489.98 186.66C487.694 185.706 485.666 184.225 484.06 182.34C482.982 181.066 482.206 179.566 481.79 177.95C481.681 177.514 481.61 177.069 481.58 176.62C481.558 176.464 481.558 176.306 481.58 176.15C481.64 176.15 481.67 176.79 481.99 177.9C482.477 179.451 483.284 180.882 484.36 182.1C485.955 183.905 487.947 185.315 490.18 186.22C492.945 187.263 495.875 187.799 498.83 187.8C501.98 187.87 504.99 187.61 507.74 187.44C510.172 187.251 512.614 187.217 515.05 187.34C516.701 187.436 518.339 187.694 519.94 188.11C520.373 188.225 520.8 188.362 521.22 188.52C521.369 188.561 521.511 188.625 521.64 188.71Z" fill="#455A64"/>
<path d="M580.57 234.18C580.57 234.18 580.48 234.18 580.28 234.31C579.995 234.44 579.697 234.537 579.39 234.6C578.203 234.853 576.97 234.798 575.81 234.44C573.986 233.854 572.336 232.823 571.01 231.44C569.326 229.546 568.017 227.351 567.15 224.97C566.06 222.41 565.15 219.47 563.36 216.75C562.457 215.342 561.393 214.043 560.19 212.88C558.893 211.664 557.472 210.589 555.95 209.67C549.67 205.88 541.42 204.33 532.95 204.83C524.48 205.33 516.51 206.93 509.14 207.44C502.605 208.14 495.995 207.459 489.74 205.44C485.508 204.064 481.683 201.659 478.61 198.44C478.134 197.938 477.69 197.407 477.28 196.85C476.96 196.457 476.673 196.039 476.42 195.6C476.22 195.27 476.06 195 475.93 194.8C475.868 194.714 475.818 194.62 475.78 194.52C475.78 194.52 475.86 194.6 475.98 194.77L476.5 195.54C476.774 195.962 477.075 196.366 477.4 196.75C477.819 197.296 478.274 197.813 478.76 198.3C481.854 201.419 485.66 203.739 489.85 205.06C496.068 207.009 502.622 207.649 509.1 206.94C516.43 206.4 524.39 204.72 532.92 204.28C541.45 203.84 549.77 205.35 556.15 209.23C557.698 210.172 559.143 211.275 560.46 212.52C561.685 213.724 562.765 215.066 563.68 216.52C565.49 219.31 566.38 222.28 567.45 224.83C568.273 227.183 569.536 229.358 571.17 231.24C572.45 232.607 574.047 233.637 575.82 234.24C576.947 234.619 578.151 234.705 579.32 234.49C580.17 234.35 580.56 234.14 580.57 234.18Z" fill="#455A64"/>
<path d="M423.29 120.49C421.418 120.443 419.597 121.101 418.186 122.332C416.775 123.563 415.877 125.279 415.67 127.14L407.58 211.35C406.18 223.19 421.67 248.58 434.36 249.98C447.17 251.39 448.43 245.18 450.09 233.98C452.87 215.24 453.8 208.18 453.79 208.29C453.78 208.4 470.29 207.74 476.41 187.11C479.41 176.85 481.19 159.6 482.16 145.44C483.03 132.69 476.7 116.08 463.92 115.75L423.29 120.49Z" fill="#FFBE9D"/>
<path d="M476.58 156.59C476.497 157.303 476.135 157.954 475.572 158.401C475.01 158.847 474.293 159.052 473.58 158.97C473.233 158.952 472.892 158.865 472.579 158.714C472.266 158.563 471.986 158.351 471.756 158.09C471.525 157.829 471.35 157.525 471.239 157.195C471.128 156.865 471.084 156.517 471.11 156.17C471.198 155.458 471.561 154.809 472.122 154.363C472.683 153.916 473.397 153.707 474.11 153.78C474.458 153.798 474.8 153.885 475.114 154.037C475.428 154.188 475.708 154.402 475.938 154.664C476.168 154.925 476.344 155.231 476.454 155.562C476.564 155.893 476.607 156.242 476.58 156.59Z" fill="#263238"/>
<path d="M477.73 151.14C477.41 151.52 475.25 150.14 472.32 150.35C469.39 150.56 467.32 152.17 467.01 151.84C466.85 151.69 467.14 151.03 468.01 150.28C469.215 149.315 470.689 148.746 472.23 148.65C473.75 148.537 475.267 148.911 476.56 149.72C477.53 150.35 477.88 151 477.73 151.14Z" fill="#263238"/>
<path d="M450.85 158.11C450.5 158.46 448.48 156.87 445.55 156.8C442.62 156.73 440.43 158.13 440.12 157.8C439.97 157.63 440.33 157 441.29 156.35C442.582 155.502 444.106 155.079 445.65 155.14C447.173 155.179 448.643 155.7 449.85 156.63C450.73 157.31 451 158 450.85 158.11Z" fill="#263238"/>
<path d="M456.31 173.6C456.31 173.43 458.17 173.36 461.15 173.37C461.9 173.37 462.62 173.37 462.82 172.84C462.981 172.083 462.908 171.295 462.61 170.58C462.15 168.687 461.667 166.687 461.16 164.58C459.16 156.13 457.83 149.22 458.16 149.14C458.49 149.06 460.39 155.86 462.38 164.31C462.86 166.39 463.31 168.37 463.74 170.31C464.098 171.278 464.098 172.342 463.74 173.31C463.598 173.557 463.402 173.768 463.166 173.927C462.931 174.087 462.662 174.19 462.38 174.23C461.952 174.285 461.518 174.285 461.09 174.23C458.13 174 456.3 173.76 456.31 173.6Z" fill="#263238"/>
<path d="M453.79 208.27C443.844 207.111 434.416 203.209 426.56 197C426.56 197 431.77 212.42 453.12 213.23L453.79 208.27Z" fill="#676767"/>
<path d="M451.26 153.1C450.8 153.81 448.03 152.77 444.59 152.39C441.15 152.01 438.22 152.29 437.94 151.49C437.82 151.11 438.46 150.49 439.73 150C441.397 149.398 443.184 149.206 444.94 149.44C446.705 149.633 448.398 150.243 449.88 151.22C451 152 451.47 152.76 451.26 153.1Z" fill="#263238"/>
<path d="M477.29 147.21C476.81 147.9 474.76 147.32 472.29 147.41C469.82 147.5 467.83 148.08 467.29 147.41C467.07 147.08 467.36 146.41 468.22 145.73C469.383 144.886 470.783 144.431 472.22 144.43C473.638 144.387 475.034 144.782 476.22 145.56C477.19 146.2 477.5 146.88 477.29 147.21Z" fill="#263238"/>
<path d="M449.23 178.91C450.572 177.993 452.218 177.635 453.82 177.91C454.637 178.023 455.39 178.415 455.95 179.02C456.556 179.915 456.822 180.996 456.7 182.07C456.705 182.718 456.607 183.363 456.41 183.98C456.205 184.597 455.767 185.11 455.19 185.41C454.548 185.642 453.852 185.676 453.19 185.51C452.09 185.369 451.035 184.987 450.1 184.39C449.635 184.092 449.24 183.696 448.943 183.229C448.646 182.763 448.454 182.238 448.38 181.69C448.318 181.139 448.436 180.583 448.715 180.103C448.994 179.624 449.42 179.248 449.93 179.03" fill="#676767"/>
<path d="M457.12 185.33C456.91 185.41 456.52 184.77 455.82 183.9C454.95 182.758 453.859 181.802 452.611 181.091C451.364 180.38 449.986 179.927 448.56 179.76C447.45 179.6 446.71 179.59 446.66 179.37C446.61 179.15 447.31 178.78 448.58 178.65C450.255 178.519 451.931 178.895 453.39 179.73C454.853 180.556 456.028 181.808 456.76 183.32C457.3 184.47 457.31 185.27 457.12 185.33Z" fill="#263238"/>
<path d="M406.45 205.56C413.4 204.17 418.76 198.2 421.15 191.56C423.54 184.92 423.41 177.61 422.78 170.56C422.798 170.104 422.723 169.649 422.56 169.222C422.396 168.796 422.148 168.407 421.83 168.08C420.78 167.27 419.27 167.93 418.13 168.62C413.748 171.284 409.549 174.238 405.56 177.46C401.84 180.46 398.16 183.91 396.73 188.46C394.54 195.46 399.17 203.81 406.26 205.65" fill="#263238"/>
<path d="M566.2 203.93L533.43 151.25L524.37 132.71C524.37 132.71 521.48 128.88 518.48 125.61C513.56 120.24 508.69 124.41 508.69 124.41C508.417 123.776 507.954 123.243 507.365 122.884C506.775 122.526 506.088 122.36 505.4 122.41C504.516 122.409 503.645 122.619 502.857 123.02C502.07 123.422 501.389 124.004 500.87 124.72C500.87 124.72 499.53 123.23 495.81 123C494.965 122.99 494.139 123.257 493.46 123.76C492.24 122.69 490 121.15 487.85 121.93C486.17 122.54 475.98 130.29 473.47 134.19C472.23 136.12 474.53 138.62 477.63 137.45C478.905 137.038 480.148 136.533 481.35 135.94C482.291 135.411 483.141 134.736 483.87 133.94C483.87 133.94 481.3 138.44 483.87 139.23C484.712 139.399 485.58 139.381 486.414 139.179C487.249 138.977 488.029 138.595 488.7 138.06C489.7 137.24 490.8 136.17 491.87 135.12L491.75 135.3C490.33 137.4 494.03 140.51 495.82 139.25C496.652 138.663 497.45 138.029 498.21 137.35C502.37 140.35 496.6 144.24 494.16 144.04C490.405 143.755 486.635 143.755 482.88 144.04C480.76 144.21 478.88 144.72 477.72 145.89C476.34 147.31 477.79 150.29 479.72 150.59C483.31 151.15 487.89 151.94 492.65 153.17C498.25 154.61 512.92 159.38 512.92 159.38L514.35 160.54L534.28 209.15L500.16 216.38L492.54 259.62L554.14 242.9C568 235.6 574.61 217.13 566.2 203.93Z" fill="#FFBE9D"/>
<path d="M512.93 159.29C512.665 159.252 512.403 159.188 512.15 159.1L509.94 158.47L501.83 156.06L496.24 154.37C494.24 153.75 492.09 153.11 489.81 152.53C487.435 151.889 485.024 151.392 482.59 151.04C481.254 151.017 479.93 150.777 478.67 150.33C478.334 150.178 478.034 149.956 477.79 149.68C477.657 149.521 477.555 149.337 477.49 149.14L477.42 148.61C477.314 147.902 477.358 147.18 477.55 146.49C477.795 145.781 478.304 145.194 478.97 144.85C479.577 144.535 480.213 144.281 480.87 144.09C482.169 143.718 483.519 143.552 484.87 143.6C487.47 143.6 489.92 144 492.26 143.9C493.397 143.873 494.53 143.763 495.65 143.57C496.74 143.37 497.78 143.09 498.8 142.83C500.684 142.241 502.658 141.987 504.63 142.08C506.249 142.235 507.835 142.64 509.33 143.28C510.455 143.749 511.551 144.287 512.61 144.89C513.48 145.38 514.14 145.79 514.61 146.06C514.841 146.193 515.062 146.344 515.27 146.51C515.019 146.414 514.778 146.293 514.55 146.15L512.55 145.07C511.483 144.502 510.384 143.995 509.26 143.55C507.785 142.95 506.227 142.579 504.64 142.45C502.712 142.38 500.786 142.647 498.95 143.24C497.95 143.51 496.89 143.81 495.78 144.02C494.634 144.228 493.474 144.348 492.31 144.38C489.93 144.49 487.45 144.14 484.91 144.11C483.627 144.071 482.345 144.23 481.11 144.58C479.89 144.98 478.5 145.41 478.11 146.65C477.948 147.27 477.91 147.916 478 148.55L478.07 149.01C478.106 149.134 478.171 149.247 478.26 149.34C478.461 149.56 478.702 149.74 478.97 149.87C480.179 150.281 481.444 150.504 482.72 150.53C485.176 150.895 487.607 151.409 490 152.07C492.29 152.66 494.43 153.32 496.43 153.96L502.01 155.71L510.07 158.28L512.25 159C512.485 159.076 512.713 159.173 512.93 159.29Z" fill="#676767"/>
<path d="M487.66 122C487.72 122.08 486.12 123 483.76 124.79C482.383 125.84 481.074 126.975 479.84 128.19C478.44 129.55 476.97 131.19 475.23 132.64C474.359 133.236 473.711 134.105 473.39 135.11C473.267 135.553 473.324 136.027 473.549 136.428C473.773 136.828 474.148 137.124 474.59 137.25C475.451 137.491 476.36 137.508 477.23 137.3C478.016 137.154 478.786 136.933 479.53 136.64C480.991 136.019 482.356 135.191 483.58 134.18C483.335 134.541 483.03 134.859 482.68 135.12C481.776 135.885 480.765 136.515 479.68 136.99C478.922 137.312 478.135 137.56 477.33 137.73C476.386 137.975 475.394 137.975 474.45 137.73C473.887 137.573 473.408 137.201 473.118 136.693C472.828 136.186 472.75 135.585 472.9 135.02C473.241 133.903 473.945 132.932 474.9 132.26C476.61 130.8 478.08 129.26 479.52 127.86C480.769 126.65 482.106 125.533 483.52 124.52C484.74 123.65 485.77 123.03 486.52 122.61C486.88 122.371 487.261 122.167 487.66 122Z" fill="#676767"/>
<path d="M500.17 126.12C499.814 126.601 499.426 127.059 499.01 127.49L495.72 131.11L490.79 136.44C489.805 137.521 488.633 138.415 487.33 139.08C486.616 139.44 485.83 139.634 485.03 139.65C484.605 139.657 484.182 139.58 483.787 139.422C483.392 139.264 483.033 139.029 482.73 138.73C482.419 138.383 482.229 137.944 482.19 137.48C482.156 137.049 482.2 136.615 482.32 136.2C482.548 135.416 482.907 134.675 483.38 134.01C485.15 132.14 486.79 130.38 488.26 128.76C489.73 127.14 491.2 125.87 492.38 124.76C492.887 124.23 493.462 123.769 494.09 123.39C494.598 123.165 495.145 123.043 495.7 123.03C496.59 122.97 497.11 123.03 497.06 123.15C496.613 123.096 496.16 123.117 495.72 123.21C495.197 123.255 494.686 123.39 494.21 123.61C493.621 124.009 493.081 124.476 492.6 125C491.46 126.14 490.05 127.46 488.6 129.06C487.15 130.66 485.52 132.48 483.76 134.37C483.322 134.979 482.984 135.654 482.76 136.37C482.657 136.727 482.616 137.099 482.64 137.47C482.681 137.822 482.827 138.153 483.06 138.42C483.576 138.913 484.266 139.183 484.98 139.17C485.699 139.156 486.407 138.982 487.05 138.66C488.3 138.027 489.428 137.177 490.38 136.15L495.38 130.9L498.79 127.4L499.74 126.46C500.007 126.22 500.15 126.107 500.17 126.12Z" fill="#676767"/>
<path d="M515.49 130.94C515.49 130.94 515.49 131.25 515.09 131.53C514.857 131.711 514.589 131.842 514.303 131.914C514.017 131.986 513.719 131.998 513.428 131.948C513.137 131.898 512.86 131.788 512.614 131.625C512.368 131.461 512.159 131.249 512 131C511.77 130.62 511.77 130.33 511.83 130.32C511.89 130.31 512.03 130.51 512.29 130.77C512.621 131.108 513.046 131.338 513.51 131.43C513.981 131.5 514.461 131.426 514.89 131.22C515.23 131.06 515.43 130.89 515.49 130.94Z" fill="#676767"/>
<path d="M516.69 135.53C516.58 135.62 515.83 134.87 515.17 133.74C514.689 133.105 514.401 132.344 514.34 131.55C514.47 131.5 514.97 132.4 515.62 133.48C516.076 134.106 516.437 134.797 516.69 135.53Z" fill="#676767"/>
<path d="M518.9 153.41C518.462 152.779 518.14 152.074 517.95 151.33C517.38 149.564 517.103 147.716 517.13 145.86C517.167 144.005 517.505 142.167 518.13 140.42C518.337 139.679 518.676 138.981 519.13 138.36C518.288 140.78 517.799 143.31 517.68 145.87C517.718 148.429 518.129 150.969 518.9 153.41Z" fill="#676767"/>
<path d="M545.82 222.7C545.72 222.7 545.62 221.64 545.1 220.01C544.789 219.06 544.394 218.14 543.92 217.26C542.74 215.113 541.101 213.252 539.12 211.81C538.312 211.222 537.452 210.71 536.55 210.28C535.01 209.55 533.96 209.28 533.98 209.22C534.234 209.21 534.488 209.244 534.73 209.32C535.414 209.466 536.083 209.674 536.73 209.94C537.679 210.338 538.584 210.834 539.43 211.42C541.513 212.859 543.21 214.789 544.37 217.04C544.842 217.954 545.214 218.916 545.48 219.91C545.664 220.564 545.787 221.234 545.85 221.91C545.882 222.173 545.872 222.44 545.82 222.7Z" fill="#676767"/>
<path d="M431.44 319C428.62 318.507 425.717 318.877 423.11 320.06C418.66 318.06 413.17 321.49 413.17 321.49C411.56 320.72 401.86 327.06 401.86 327.06L389.78 332.76L325.25 284.81L343.54 265.81L317.91 239.14L287.91 270.04C284.235 274.017 282.107 279.179 281.91 284.59C281.622 290.351 283.023 296.07 285.942 301.044C288.861 306.019 293.171 310.032 298.34 312.59L374.34 351.59C380.178 351.265 385.969 350.364 391.63 348.9C398.19 347.19 409.4 342.21 409.4 342.21C409.4 342.21 409.4 342.55 411.4 346.44C415.01 353.44 420.3 345.88 420.3 345.88C420.826 347.109 421.519 348.26 422.36 349.3C426.93 353.73 430.1 347.78 430.1 347.78C430.1 347.78 431.47 350.17 435.55 348.39C439.63 346.61 434.96 334.33 434.96 334.33C434.96 334.33 436.33 337 438.96 333.62C441.59 330.24 435.81 319.92 431.44 319Z" fill="#FFBE9D"/>
<path d="M422.31 320.69C422.56 320.515 422.848 320.402 423.15 320.36C423.961 320.183 424.803 320.21 425.6 320.44C426.774 320.774 427.871 321.334 428.83 322.09C429.407 322.519 429.946 322.998 430.44 323.52C430.938 324.134 431.361 324.806 431.7 325.52C432.885 327.905 433.871 330.383 434.65 332.93C434.95 333.93 435.15 334.7 435.28 335.26C435.373 335.544 435.417 335.841 435.41 336.14C435.34 336.14 434.98 334.95 434.3 333.04C433.418 330.553 432.393 328.119 431.23 325.75C430.915 325.087 430.519 324.465 430.05 323.9C429.584 323.398 429.079 322.933 428.54 322.51C427.646 321.78 426.63 321.211 425.54 320.83C424.491 320.52 423.382 320.472 422.31 320.69Z" fill="#676767"/>
<path d="M430.08 347.81C429.85 347.462 429.658 347.09 429.51 346.7L428.1 343.64C426.91 341.05 425.17 337.51 423.51 333.48C422.842 331.564 421.96 329.729 420.88 328.01C419.948 326.661 418.665 325.593 417.17 324.92C416.176 324.439 415.069 324.242 413.97 324.35C413.19 324.45 412.79 324.66 412.77 324.61C412.75 324.56 412.86 324.54 413.05 324.44C413.328 324.301 413.624 324.203 413.93 324.15C415.078 323.954 416.258 324.104 417.32 324.58C418.907 325.242 420.276 326.337 421.27 327.74C422.393 329.472 423.307 331.332 423.99 333.28C425.64 337.28 427.33 340.86 428.44 343.49C428.99 344.8 429.44 345.88 429.7 346.62C429.87 347.002 429.997 347.401 430.08 347.81Z" fill="#676767"/>
<path d="M400.46 332.38C400.773 332.157 401.108 331.966 401.46 331.81L404.34 330.42C404.96 330.13 405.61 329.81 406.34 329.49C407.162 329.163 408.049 329.033 408.93 329.11C409.911 329.189 410.852 329.535 411.65 330.11C412.455 330.768 413.133 331.568 413.65 332.47C414.2 333.37 414.65 334.3 415.05 335.16C415.45 336.02 415.92 336.85 416.36 337.63C417.23 339.18 418.05 340.57 418.65 341.79C419.144 342.743 419.571 343.729 419.93 344.74C420.09 345.099 420.198 345.48 420.25 345.87C420.17 345.87 419.63 344.32 418.33 341.96C417.68 340.78 416.84 339.42 415.94 337.87C415.49 337.09 415.04 336.26 414.6 335.39C414.16 334.52 413.74 333.61 413.21 332.74C412.725 331.896 412.1 331.142 411.36 330.51C410.647 329.965 409.801 329.62 408.91 329.51C408.101 329.423 407.282 329.525 406.52 329.81C405.8 330.1 405.11 330.42 404.52 330.67L401.57 332C401.217 332.171 400.844 332.299 400.46 332.38Z" fill="#676767"/>
<path d="M401.86 327.07C401.593 327.292 401.297 327.477 400.98 327.62C400.4 327.95 399.55 328.41 398.49 328.97C396.38 330.09 393.44 331.61 390.18 333.25C386.92 334.89 383.96 336.35 381.8 337.39L379.24 338.59C378.925 338.757 378.588 338.882 378.24 338.96C378.513 338.738 378.812 338.55 379.13 338.4C379.71 338.08 380.56 337.62 381.62 337.06C383.73 335.94 386.67 334.43 389.93 332.78C393.19 331.13 396.15 329.68 398.3 328.65C399.38 328.13 400.3 327.72 400.87 327.44C401.18 327.269 401.514 327.145 401.86 327.07Z" fill="#676767"/>
<path d="M326.11 284.93C323.588 284.549 321.031 284.465 318.49 284.68C315.968 285.06 313.498 285.731 311.13 286.68C311.732 286.201 312.407 285.823 313.13 285.56C314.819 284.834 316.604 284.356 318.43 284.14C320.261 283.924 322.113 283.971 323.93 284.28C324.687 284.377 325.423 284.597 326.11 284.93Z" fill="#676767"/>
<path d="M468.62 111.71C452.638 111.481 436.685 113.16 421.1 116.71C417.49 117.54 413.67 118.6 411.23 121.38C408.64 124.32 408.23 128.51 407.85 132.38C407.437 137.133 407.023 141.883 406.61 146.63C405.924 147.806 405.166 148.938 404.34 150.02C400.58 154.93 395.79 159.02 392.34 164.18C388.89 169.34 387.03 176.18 389.81 181.7C391.5 185.04 394.62 187.4 396.9 190.36C400.77 195.36 402.03 201.87 404.29 207.8C406.55 213.73 410.63 219.8 416.86 220.96C419.86 221.53 422.92 220.9 425.91 221.34C430.38 221.99 434.14 224.92 437.69 227.71C441.24 230.5 445.1 233.34 449.6 233.79C454.1 234.24 459.25 231.19 459.34 226.67C457.671 227.611 455.778 228.08 453.863 228.027C451.949 227.974 450.084 227.401 448.47 226.37C445.85 224.64 444.16 221.84 441.91 219.66C436.38 214.3 427.48 212.6 423.63 205.93C420.63 200.66 421.8 194.05 423.18 188.12C424.37 182.98 425.59 177.41 424.1 172.47C424.218 171.675 424.282 170.873 424.29 170.07C424.29 164.81 422.24 159.17 424.69 154.52C427.93 148.36 437.27 147.58 440.54 141.45C442.45 137.88 441.78 133.32 443.86 129.85C445.81 126.59 449.72 125.09 453.44 124.28C457.16 123.47 461.07 123.1 464.35 121.18C467.63 119.26 470.11 115.2 468.62 111.71Z" fill="#263238"/>
<path d="M480.74 219C480.703 219.09 480.652 219.174 480.59 219.25L480.1 219.94C479.428 220.805 478.656 221.587 477.8 222.27C476.425 223.337 474.88 224.165 473.23 224.72C471.048 225.477 468.727 225.747 466.43 225.51C463.624 225.237 460.96 224.145 458.77 222.37C456.39 220.54 454.27 218.11 451.58 216.18C450.232 215.175 448.66 214.513 447 214.25C445.248 214.106 443.489 214.427 441.9 215.18C440.209 215.978 438.435 216.589 436.61 217C434.652 217.282 432.655 216.932 430.91 216C429.204 215.101 427.592 214.032 426.1 212.81C424.608 211.689 423.197 210.463 421.88 209.14C420.578 207.857 419.556 206.318 418.88 204.62C418.277 202.954 418.159 201.151 418.54 199.42C418.906 197.816 419.411 196.246 420.05 194.73C420.63 193.26 421.13 191.81 421.57 190.39C422.374 187.77 422.992 185.097 423.42 182.39C424.039 178.445 424.256 174.448 424.07 170.46C424.01 169.05 423.92 167.95 423.84 167.21C423.84 166.86 423.84 166.59 423.77 166.37C423.755 166.274 423.755 166.176 423.77 166.08C423.805 166.17 423.825 166.264 423.83 166.36L423.95 167.2C424.06 167.94 424.19 169.03 424.28 170.45C424.544 174.456 424.383 178.478 423.8 182.45C423.392 185.192 422.79 187.902 422 190.56C421.56 191.98 421.06 193.45 420.49 194.94C419.865 196.415 419.366 197.94 419 199.5C418.638 201.145 418.756 202.86 419.34 204.44C419.997 206.071 420.984 207.549 422.24 208.78C423.542 210.082 424.935 211.288 426.41 212.39C427.874 213.589 429.456 214.638 431.13 215.52C432.773 216.423 434.663 216.773 436.52 216.52C438.306 216.112 440.043 215.512 441.7 214.73C443.371 213.956 445.215 213.632 447.05 213.79C448.788 214.058 450.436 214.744 451.85 215.79C454.59 217.79 456.69 220.23 459.03 222.04C461.146 223.786 463.731 224.868 466.46 225.15C470.437 225.585 474.433 224.515 477.66 222.15C478.809 221.227 479.843 220.169 480.74 219Z" fill="#263238"/>
<path d="M380.83 187.2C380.542 186.846 380.275 186.475 380.03 186.09C379.349 184.968 378.869 183.737 378.61 182.45C378.216 180.405 378.25 178.301 378.71 176.27C379.31 173.575 380.491 171.043 382.17 168.85C384.236 166.241 386.668 163.944 389.39 162.03C392.26 159.89 395.52 157.9 398.77 155.59C402.236 153.27 405.252 150.339 407.67 146.94C408.862 145.085 409.772 143.063 410.37 140.94C411.01 138.8 411.45 136.56 411.97 134.3C412.421 132.047 413.091 129.843 413.97 127.72C414.849 125.634 416.194 123.777 417.9 122.29C419.567 120.886 421.494 119.823 423.57 119.16C425.542 118.522 427.583 118.119 429.65 117.96C433.454 117.767 437.266 117.887 441.05 118.32C444.326 118.67 447.627 118.714 450.91 118.45C453.611 118.19 456.236 117.409 458.64 116.15C460.456 115.205 462.064 113.907 463.37 112.33C464.194 111.33 464.844 110.197 465.29 108.98C465.57 108.14 465.68 107.68 465.7 107.69C465.628 108.14 465.524 108.584 465.39 109.02C464.975 110.266 464.345 111.43 463.53 112.46C462.232 114.1 460.617 115.46 458.78 116.46C456.351 117.764 453.692 118.583 450.95 118.87C447.642 119.16 444.314 119.137 441.01 118.8C437.251 118.391 433.466 118.287 429.69 118.49C427.649 118.649 425.635 119.052 423.69 119.69C421.68 120.324 419.812 121.343 418.19 122.69C416.544 124.133 415.248 125.932 414.4 127.95C413.521 130.042 412.851 132.216 412.4 134.44C411.88 136.69 411.4 138.94 410.78 141.11C410.171 143.272 409.237 145.329 408.01 147.21C405.568 150.653 402.518 153.621 399.01 155.97C395.73 158.29 392.47 160.26 389.61 162.37C386.907 164.246 384.489 166.503 382.43 169.07C380.754 171.202 379.57 173.678 378.96 176.32C378.475 178.312 378.411 180.382 378.77 182.4C379.118 184.125 379.819 185.76 380.83 187.2Z" fill="#455A64"/>
<path d="M383.76 192.45C382.644 191.568 381.616 190.58 380.69 189.5C379.549 188.265 378.644 186.831 378.02 185.27C377.627 184.276 377.47 183.205 377.56 182.14C377.683 180.942 378.153 179.806 378.91 178.87C380.53 176.87 383.21 175.81 386.02 175.22C387.43 174.93 388.91 174.7 390.38 174.33C391.898 174.012 393.343 173.411 394.64 172.56C395.949 171.599 397.011 170.341 397.74 168.89C398.501 167.351 399.143 165.757 399.66 164.12C400.193 162.403 400.861 160.731 401.66 159.12C402.516 157.426 403.811 155.993 405.41 154.97C407.035 154.043 408.792 153.368 410.62 152.97C412.39 152.51 414.14 152.14 415.79 151.58C418.965 150.473 421.732 148.434 423.73 145.73C425.58 143.283 427.241 140.699 428.7 138C429.985 135.648 431.488 133.421 433.19 131.35C434.61 129.632 436.353 128.209 438.32 127.16C439.807 126.37 441.434 125.877 443.11 125.71C444.17 125.609 445.24 125.697 446.27 125.97C446.613 126.061 446.948 126.182 447.27 126.33C447.27 126.33 446.9 126.23 446.2 126.07C445.179 125.851 444.129 125.797 443.09 125.91C441.453 126.111 439.868 126.62 438.42 127.41C436.5 128.465 434.803 129.881 433.42 131.58C431.757 133.656 430.284 135.879 429.02 138.22C427.581 140.938 425.936 143.543 424.1 146.01C423.071 147.338 421.886 148.536 420.57 149.58C419.194 150.639 417.649 151.457 416 152C414.32 152.58 412.55 152.95 410.8 153.41C409.021 153.813 407.314 154.487 405.74 155.41C404.208 156.396 402.971 157.778 402.16 159.41C401.363 160.997 400.694 162.646 400.16 164.34C399.62 166 398.952 167.615 398.16 169.17C397.385 170.685 396.269 171.999 394.9 173.01C393.546 173.881 392.045 174.498 390.47 174.83C388.97 175.19 387.47 175.41 386.09 175.7C383.32 176.26 380.71 177.29 379.18 179.15C378.454 180.028 377.999 181.098 377.87 182.23C377.772 183.247 377.909 184.274 378.27 185.23C378.87 186.767 379.733 188.188 380.82 189.43C381.7 190.43 382.45 191.22 382.96 191.73L383.55 192.3C383.7 192.37 383.77 192.44 383.76 192.45Z" fill="#455A64"/>
<path d="M506.86 127.85C506.721 128.128 506.546 128.387 506.34 128.62C505.98 129.1 505.45 129.78 504.76 130.62C503.4 132.26 501.44 134.46 499.14 136.77C498 137.89 496.93 139.15 495.46 139.61C494.776 139.845 494.034 139.845 493.35 139.61C492.764 139.366 492.282 138.924 491.99 138.36C491.596 137.575 491.466 136.684 491.62 135.82C491.637 135.508 491.715 135.202 491.85 134.92C491.883 135.226 491.883 135.534 491.85 135.84C491.777 136.651 491.948 137.466 492.34 138.18C492.609 138.641 493.03 138.994 493.53 139.18C494.116 139.384 494.754 139.384 495.34 139.18C496.62 138.77 497.65 137.57 498.8 136.43C501.09 134.14 503.08 131.98 504.52 130.43C505.241 129.519 506.023 128.657 506.86 127.85Z" fill="#676767"/>
<path d="M514.5 127.85C514.336 128.138 514.13 128.401 513.89 128.63C513.48 129.11 512.89 129.79 512.11 130.63L509.42 133.54L507.82 135.24C507.267 135.88 506.658 136.469 506 137C505.299 137.559 504.452 137.906 503.56 138C503.127 138.045 502.69 137.977 502.292 137.801C501.894 137.626 501.549 137.35 501.29 137C501.049 136.661 500.92 136.256 500.92 135.84C500.943 135.461 501.06 135.093 501.26 134.77C501.63 134.17 502.01 133.71 502.34 133.25C503 132.34 503.55 131.61 503.94 131.11C504.12 130.834 504.339 130.584 504.59 130.37C504.465 130.675 504.304 130.964 504.11 131.23C503.77 131.76 503.27 132.52 502.64 133.46C502.33 133.93 501.95 134.46 501.64 134.98C501.458 135.233 501.36 135.538 501.36 135.85C501.36 136.162 501.458 136.467 501.64 136.72C501.855 136.998 502.138 137.214 502.463 137.348C502.788 137.481 503.142 137.527 503.49 137.48C504.278 137.395 505.027 137.09 505.65 136.6C506.304 136.105 506.91 135.549 507.46 134.94L509.09 133.26L511.86 130.42C512.65 129.62 513.3 128.98 513.76 128.54C513.974 128.277 514.223 128.045 514.5 127.85Z" fill="#676767"/>
<path d="M618.91 434C619.769 432.131 621.069 430.499 622.699 429.245C624.329 427.99 626.239 427.151 628.266 426.8C630.293 426.448 632.374 426.595 634.331 427.228C636.288 427.86 638.062 428.959 639.5 430.43C637.392 433.831 634.118 436.348 630.29 437.51C628.267 438.222 626.069 438.266 624.02 437.634C621.971 437.002 620.18 435.728 618.91 434Z" fill="#EB4143"/>
<path d="M611.81 435.64C612.728 435.229 613.691 434.927 614.68 434.74C616.49 434.3 619.01 433.81 621.8 433.35C624.59 432.89 627.13 432.54 628.98 432.35C629.971 432.185 630.975 432.108 631.98 432.12C631.019 432.402 630.035 432.603 629.04 432.72L621.89 433.89C619.11 434.35 616.59 434.79 614.77 435.13C613.794 435.356 612.806 435.526 611.81 435.64Z" fill="#263238"/>
<path d="M261.48 370.69C263.612 372.446 265.274 374.705 266.317 377.263C267.359 379.821 267.749 382.598 267.452 385.345C267.154 388.091 266.179 390.72 264.612 392.995C263.046 395.271 260.939 397.121 258.48 398.38C254.81 388.97 253.4 378.84 261.48 370.69Z" fill="#EB4143"/>
<path d="M275.39 377.91C275.587 381.477 276.667 384.939 278.534 387.985C280.401 391.03 282.996 393.564 286.085 395.358C289.174 397.152 292.661 398.15 296.231 398.262C299.802 398.374 303.344 397.597 306.54 396C299.54 385 290.07 375.73 275.39 377.89" fill="#EB4143"/>
<path d="M243.52 343.13C243.696 343.277 243.854 343.445 243.99 343.63L245.24 345.12C246.3 346.43 247.85 348.32 249.81 350.61C253.71 355.21 259.22 361.47 265.71 368C268.96 371.26 272.15 374.27 275.11 376.93C278.07 379.59 280.87 381.86 283.27 383.68C285.155 385.125 287.122 386.46 289.16 387.68C290.61 388.54 291.47 388.9 291.45 388.95C291.227 388.899 291.012 388.818 290.81 388.71C290.209 388.464 289.625 388.18 289.06 387.86C286.975 386.699 284.971 385.4 283.06 383.97C280.62 382.17 277.82 379.9 274.81 377.28C271.8 374.66 268.61 371.62 265.35 368.36C258.85 361.82 253.35 355.51 249.54 350.84C247.61 348.51 246.11 346.58 245.09 345.24L243.91 343.68C243.763 343.509 243.633 343.325 243.52 343.13Z" fill="#263238"/>
<path d="M260.71 384.91C260.62 384.91 260.95 383.51 261.24 381.24C261.982 375.303 261.353 369.275 259.4 363.62C258.65 361.46 258.04 360.17 258.12 360.13C258.328 360.392 258.499 360.682 258.63 360.99C259.047 361.803 259.421 362.637 259.75 363.49C260.828 366.313 261.534 369.265 261.85 372.27C262.161 375.268 262.077 378.294 261.6 381.27C261.452 382.191 261.251 383.102 261 384C260.939 384.314 260.842 384.619 260.71 384.91Z" fill="#263238"/>
<path d="M702 182.54C700.762 180.899 699.941 178.981 699.61 176.952C699.278 174.922 699.445 172.843 700.097 170.893C700.749 168.943 701.865 167.181 703.35 165.759C704.835 164.336 706.644 163.297 708.62 162.73C710.616 166.192 711.281 170.263 710.49 174.18C710.159 176.3 709.155 178.257 707.626 179.763C706.097 181.268 704.125 182.242 702 182.54Z" fill="#EB4143"/>
<path d="M700.1 189.57C700.17 188.567 700.362 187.577 700.67 186.62C701.14 184.82 701.9 182.37 702.82 179.69C703.74 177.01 704.64 174.61 705.32 172.88C705.64 171.927 706.049 171.007 706.54 170.13C706.33 171.112 706.039 172.076 705.67 173.01C705.01 174.92 704.2 177.26 703.31 179.86C702.42 182.46 701.58 184.96 701.02 186.72C700.762 187.685 700.455 188.636 700.1 189.57Z" fill="#263238"/>
<path d="M658 256.94C656.965 253.1 656.881 249.066 657.755 245.186C658.628 241.306 660.433 237.697 663.013 234.671C665.594 231.644 668.872 229.292 672.565 227.816C676.258 226.34 680.255 225.785 684.21 226.2C685.6 233.76 683.21 241.52 679.26 248.09C674.55 255.84 665.19 259.09 658 256.94Z" fill="#EB4143"/>
<path d="M628.41 286.54C628.535 286.346 628.679 286.165 628.84 286L630.13 284.53C631.28 283.27 632.96 281.47 635.05 279.27C639.25 274.87 645.11 268.86 651.63 262.27C658.15 255.68 664.08 249.73 668.4 245.46L673.54 240.41L674.96 239.06C675.28 238.76 675.46 238.6 675.48 238.62C675.346 238.807 675.196 238.981 675.03 239.14L673.68 240.56L668.68 245.71L652 262.63L635.32 279.53L630.32 284.67L628.96 286.07C628.795 286.247 628.611 286.405 628.41 286.54Z" fill="#263238"/>
<g opacity="0.3">
<path d="M658 256.94C656.965 253.1 656.881 249.066 657.755 245.186C658.628 241.306 660.433 237.697 663.013 234.671C665.594 231.644 668.872 229.292 672.565 227.816C676.258 226.34 680.255 225.785 684.21 226.2C685.6 233.76 683.21 241.52 679.26 248.09C674.55 255.84 665.19 259.09 658 256.94Z" fill="black"/>
</g>
<path d="M644.29 259.91C642.112 258.8 640.238 257.175 638.831 255.175C637.424 253.176 636.528 250.863 636.219 248.438C635.911 246.013 636.199 243.549 637.061 241.261C637.922 238.973 639.329 236.93 641.16 235.31C645.16 237.81 647.72 242.08 649.05 246.6C650.63 251.94 648.25 257.6 644.29 259.91Z" fill="#EB4143"/>
<g opacity="0.3">
<path d="M644.29 259.91C642.112 258.8 640.238 257.175 638.831 255.175C637.424 253.176 636.528 250.863 636.219 248.438C635.911 246.013 636.199 243.549 637.061 241.261C637.922 238.973 639.329 236.93 641.16 235.31C645.16 237.81 647.72 242.08 649.05 246.6C650.63 251.94 648.25 257.6 644.29 259.91Z" fill="black"/>
</g>
<path d="M645.85 268.43C645.712 268.137 645.611 267.828 645.55 267.51C645.38 266.92 645.19 266.05 644.98 264.96C644.56 262.8 644.12 259.78 643.72 256.45C643.32 253.12 643.04 250.08 642.87 247.88C642.726 246.699 642.679 245.509 642.73 244.32C642.98 245.484 643.15 246.663 643.24 247.85C643.51 250.17 643.86 253.12 644.24 256.39C644.62 259.66 645.02 262.73 645.34 264.9C645.66 267.07 645.93 268.41 645.85 268.43Z" fill="#263238"/>
<path d="M457 375.81C458.528 372.184 460.936 368.996 464.007 366.535C467.077 364.074 470.712 362.417 474.584 361.714C478.455 361.011 482.441 361.285 486.18 362.51C489.92 363.735 493.295 365.873 496 368.73C484.66 377.52 471.43 383.52 457.08 375.81" fill="#EB4143"/>
<g opacity="0.3">
<path d="M457 375.81C458.528 372.184 460.936 368.996 464.007 366.535C467.077 364.074 470.712 362.417 474.584 361.714C478.455 361.011 482.441 361.285 486.18 362.51C489.92 363.735 493.295 365.873 496 368.73C484.66 377.52 471.43 383.52 457.08 375.81" fill="black"/>
</g>
<path d="M450.63 379.33C450.9 379.06 451.202 378.825 451.53 378.63C452.13 378.2 453.02 377.63 454.16 376.97C460.103 373.534 466.69 371.359 473.51 370.58C474.81 370.44 475.87 370.37 476.6 370.36C476.978 370.308 477.362 370.308 477.74 370.36C477.74 370.44 476.13 370.54 473.55 370.92C470.193 371.411 466.885 372.187 463.66 373.24C460.444 374.303 457.326 375.642 454.34 377.24C452 378.52 450.68 379.4 450.63 379.33Z" fill="#263238"/>
<path d="M193.43 245.51C196.176 244.229 199.197 243.651 202.222 243.828C205.247 244.004 208.181 244.93 210.759 246.521C213.338 248.113 215.48 250.321 216.994 252.946C218.507 255.571 219.344 258.531 219.43 261.56C208.38 260.74 197.69 257.35 193.43 245.51Z" fill="#EB4143"/>
<g opacity="0.3">
<path d="M193.43 245.51C196.176 244.229 199.197 243.651 202.222 243.828C205.247 244.004 208.181 244.93 210.759 246.521C213.338 248.113 215.48 250.321 216.994 252.946C218.507 255.571 219.344 258.531 219.43 261.56C208.38 260.74 197.69 257.35 193.43 245.51Z" fill="black"/>
</g>
<path d="M187.94 244.22C188.231 244.172 188.529 244.172 188.82 244.22C189.616 244.306 190.407 244.432 191.19 244.6C193.78 245.141 196.307 245.948 198.73 247.01C201.151 248.082 203.457 249.399 205.61 250.94C206.43 251.54 207.07 252.05 207.49 252.43C207.726 252.608 207.938 252.817 208.12 253.05C208.06 253.12 207.12 252.35 205.4 251.25C201.029 248.366 196.195 246.252 191.11 245C189.16 244.51 187.93 244.3 187.94 244.22Z" fill="#263238"/>
<path d="M551.76 363.56C551.434 360.869 551.783 358.139 552.774 355.615C553.766 353.092 555.369 350.855 557.44 349.106C559.511 347.356 561.984 346.149 564.638 345.593C567.291 345.037 570.041 345.149 572.64 345.92C568.87 355.09 563.01 363.24 551.76 363.56Z" fill="#EB4143"/>
<path d="M549.13 367.87C549.435 366.935 549.855 366.042 550.38 365.21C552.74 361.085 555.947 357.506 559.79 354.71C560.561 354.099 561.404 353.585 562.3 353.18C561.566 353.827 560.799 354.435 560 355C556.329 357.912 553.177 361.425 550.68 365.39C550.211 366.246 549.694 367.074 549.13 367.87Z" fill="#263238"/>
<path d="M630.45 311.61C629.624 309.028 629.454 306.281 629.953 303.617C630.453 300.953 631.607 298.454 633.312 296.347C635.016 294.239 637.218 292.589 639.72 291.544C642.221 290.499 644.943 290.092 647.64 290.36C645.64 300.08 641.44 309.18 630.45 311.61Z" fill="#EB4143"/>
<g opacity="0.3">
<path d="M630.45 311.61C629.624 309.028 629.454 306.281 629.953 303.617C630.453 300.953 631.607 298.454 633.312 296.347C635.016 294.239 637.218 292.589 639.72 291.544C642.221 290.499 644.943 290.092 647.64 290.36C645.64 300.08 641.44 309.18 630.45 311.61Z" fill="black"/>
</g>
<path d="M628.68 316.34C628.801 315.366 629.047 314.412 629.41 313.5C630.175 311.255 631.181 309.099 632.41 307.07C633.627 305.037 635.062 303.142 636.69 301.42C637.328 300.667 638.057 299.995 638.86 299.42C638.266 300.193 637.632 300.934 636.96 301.64C635.44 303.42 634.066 305.32 632.85 307.32C631.657 309.329 630.624 311.429 629.76 313.6C629.453 314.533 629.092 315.448 628.68 316.34Z" fill="#263238"/>
<path d="M37.28 240.1C37.868 237.453 39.1048 234.994 40.8792 232.945C42.6537 230.895 44.91 229.318 47.4451 228.357C49.9802 227.396 52.7145 227.081 55.4018 227.439C58.0892 227.797 60.6453 228.818 62.84 230.41C56.24 237.8 48 243.54 37.28 240.1Z" fill="#EB4143"/>
<path d="M33.37 243.29C33.9715 242.514 34.663 241.813 35.43 241.2C37.2231 239.665 39.174 238.324 41.25 237.2C43.3278 236.055 45.524 235.14 47.8 234.47C48.7263 234.144 49.691 233.939 50.67 233.86C49.7688 234.243 48.8474 234.577 47.91 234.86C43.4786 236.381 39.3392 238.647 35.67 241.56C34.938 242.181 34.17 242.759 33.37 243.29Z" fill="#263238"/>
<path d="M494.37 109.6L502.37 95.11C497.235 86.9527 495.338 77.1699 497.05 67.6845C498.762 58.199 503.96 49.697 511.622 43.8494C519.285 38.0019 528.857 35.2318 538.458 36.0836C548.059 36.9355 556.994 41.3476 563.507 48.4528C570.021 55.5581 573.641 64.8425 573.656 74.4812C573.671 84.1199 570.081 93.4158 563.59 100.542C557.1 107.668 548.179 112.108 538.58 112.99C528.982 113.873 519.401 111.133 511.72 105.31L494.37 109.6Z" fill="white"/>
<path d="M494.37 109.6L511.74 105.2L511.67 105.41L511.06 104.64L511.86 105.23C514.319 107.073 516.983 108.623 519.8 109.85C523.154 111.293 526.696 112.252 530.32 112.7C532.326 112.951 534.351 113.024 536.37 112.92C537.37 112.85 538.47 112.81 539.54 112.71L542.75 112.18C552.326 110.185 560.783 104.618 566.4 96.61C569.52 92.1821 571.661 87.1401 572.68 81.82C573.704 76.1889 573.472 70.401 572 64.87C570.502 59.0952 567.654 53.7587 563.69 49.3L562.12 47.61C561.6 47.04 560.99 46.61 560.43 46.05C559.878 45.5212 559.297 45.0237 558.69 44.56L556.85 43.21C556.262 42.764 555.644 42.3597 555 42L553 40.82L551 39.82C550.352 39.4822 549.684 39.185 549 38.93C543.561 36.8324 537.72 35.9881 531.91 36.46C526.413 36.877 521.076 38.5023 516.28 41.22C507.656 46.1178 501.236 54.134 498.34 63.62C497.194 67.6642 496.661 71.8576 496.76 76.06C496.99 82.7929 498.991 89.3462 502.56 95.06V95.12V95.19L494.41 109.61L502.34 95.06V95.19C498.706 89.4708 496.653 82.8908 496.39 76.12C496.269 71.8791 496.792 67.6444 497.94 63.56C500.835 53.9569 507.298 45.8269 516 40.84C520.858 38.0854 526.262 36.4331 531.83 36C537.717 35.5203 543.637 36.3713 549.15 38.49C549.858 38.7464 550.549 39.047 551.22 39.39L553.28 40.39L555.28 41.56C555.951 41.9331 556.595 42.3507 557.21 42.81L559 44.15C559.64 44.59 560.17 45.15 560.77 45.66C561.37 46.17 561.95 46.66 562.48 47.24L564.11 49C568.135 53.5132 571.022 58.9237 572.53 64.78C573.994 70.3851 574.206 76.2439 573.15 81.94C572.122 87.3393 569.946 92.4547 566.77 96.94C561.081 105.037 552.514 110.653 542.82 112.64L539.56 113.17C538.49 113.27 537.42 113.3 536.37 113.37C534.33 113.47 532.285 113.386 530.26 113.12C526.602 112.66 523.028 111.677 519.65 110.2C516.805 108.954 514.12 107.373 511.65 105.49L511.83 105.31L511.96 105.47H511.76L494.37 109.6Z" fill="#263238"/>
<path d="M524.36 68L529.36 67.95C529.35 67.3792 529.456 66.8124 529.67 66.2833C529.885 65.7542 530.204 65.2738 530.608 64.8706C531.012 64.4674 531.493 64.1497 532.023 63.9366C532.552 63.7235 533.119 63.6192 533.69 63.63C534.533 63.5836 535.37 63.8053 536.079 64.2634C536.789 64.7215 537.335 65.3924 537.64 66.18C537.912 66.8333 538.026 67.5416 537.972 68.2472C537.918 68.9527 537.698 69.6356 537.33 70.24C536.49 71.65 534.64 72.94 531.25 72.38L531.36 83.69H536.36L536.27 77C538.3 76.3816 540.071 75.1147 541.312 73.3934C542.553 71.672 543.195 69.5913 543.14 67.47C543.07 60.14 536.48 58.47 533.66 58.53C531.51 58.58 524.18 59.17 524.36 68Z" fill="#EB4143"/>
<path d="M536.421 85.9767L531.391 86.025L531.436 90.7247L536.466 90.6765L536.421 85.9767Z" fill="#EB4143"/>
</svg>
