<svg width="298" height="306" viewBox="0 0 298 306" fill="none" xmlns="http://www.w3.org/2000/svg">
<rect width="297.432" height="305.694" rx="20" fill="url(#paint0_linear_30_968)"/>
<rect width="297.432" height="305.694" rx="20" fill="url(#paint1_linear_30_968)"/>
<path d="M212.912 125.235C202.324 127.702 197.376 139.013 199.202 149.73C199.985 154.319 200.42 158.922 200.42 163.499C200.42 171.104 199.259 178.191 197.287 184.746C192.187 201.698 202.807 221.986 216.452 210.708C217.909 209.504 219.333 208.201 220.716 206.792C237.635 189.564 244.445 160.569 247.179 140.969C248.741 129.77 239.616 120.664 228.428 122.309C223.699 123.004 218.426 123.95 212.912 125.235Z" fill="white"/>
<path d="M98.7978 149.715C100.625 138.999 95.6777 127.689 85.0912 125.22C79.58 123.935 74.3084 122.988 69.5791 122.292C58.3887 120.644 49.2591 129.75 50.8221 140.953C53.5566 160.553 60.3676 189.542 77.2842 206.768C78.6666 208.176 80.0897 209.479 81.546 210.683C95.1906 221.963 105.805 201.677 100.709 184.722C98.7393 178.168 97.5805 171.081 97.5805 163.475C97.5805 158.903 98.0155 154.302 98.7978 149.715Z" fill="white"/>
<path d="M189.556 163.475C189.556 139.315 174.493 114.129 162.853 98.2721C156.079 89.0454 143.017 89.0454 136.244 98.2721C124.603 114.129 109.541 139.315 109.541 163.475C109.541 189.103 126.462 207.203 138.298 216.757C144.232 221.657 152.668 222.112 159.096 217.879L160.799 216.757C172.635 207.203 189.556 189.103 189.556 163.475Z" fill="white"/>
<defs>
<linearGradient id="paint0_linear_30_968" x1="148.716" y1="0" x2="153.571" y2="560.988" gradientUnits="userSpaceOnUse">
<stop stop-color="#5865F2"/>
<stop offset="1" stop-color="#78C6FF"/>
</linearGradient>
<linearGradient id="paint1_linear_30_968" x1="6.63976e-07" y1="159.493" x2="297.432" y2="159.493" gradientUnits="userSpaceOnUse">
<stop stop-color="#FF484B"/>
<stop offset="1" stop-color="#FD2226"/>
</linearGradient>
</defs>
</svg>
