<svg width="1428" height="698" viewBox="0 0 1428 698" fill="none" xmlns="http://www.w3.org/2000/svg">
<path d="M1.24537 677.516L2.44712 678.105L3.67635 677.576L3.08757 678.778L3.6166 680.007L2.41485 679.418L1.18562 679.947L1.7744 678.746L1.24537 677.516Z" fill="#6F6C7D"/>
<path d="M805.964 693.565L807.166 694.154L808.395 693.625L807.807 694.827L808.336 696.056L807.134 695.467L805.905 695.996L806.493 694.794L805.964 693.565Z" fill="#6F6C7D"/>
<g filter="url(#filter0_f_30_984)">
<path d="M384.117 677.516L385.319 678.105L386.548 677.576L385.96 678.778L386.489 680.007L385.287 679.418L384.058 679.947L384.646 678.746L384.117 677.516Z" fill="white"/>
</g>
<g filter="url(#filter1_f_30_984)">
<path d="M888.5 648.858L889.702 649.447L890.931 648.918L890.342 650.12L890.871 651.349L889.669 650.76L888.44 651.289L889.029 650.088L888.5 648.858Z" fill="white"/>
</g>
<path d="M620.26 644.273L621.462 644.862L622.691 644.333L622.102 645.535L622.631 646.764L621.429 646.175L620.2 646.704L620.789 645.502L620.26 644.273Z" fill="#6F6C7D"/>
<g filter="url(#filter2_f_30_984)">
<path d="M730.09 634.273L733.295 635.843L736.573 634.432L735.003 637.637L736.413 640.915L733.209 639.345L729.931 640.755L731.501 637.551L730.09 634.273Z" fill="#868592"/>
</g>
<path d="M1397.47 616.761L1398.67 617.35L1399.9 616.821L1399.31 618.023L1399.84 619.252L1398.64 618.663L1397.41 619.192L1398 617.991L1397.47 616.761Z" fill="white"/>
<g filter="url(#filter3_f_30_984)">
<path d="M118.17 561.738L119.372 562.327L120.601 561.798L120.013 562.999L120.542 564.229L119.34 563.64L118.111 564.169L118.699 562.967L118.17 561.738Z" fill="white"/>
</g>
<g filter="url(#filter4_f_30_984)">
<path d="M1137.25 557.153L1138.45 557.741L1139.68 557.212L1139.09 558.414L1139.62 559.643L1138.42 559.054L1137.19 559.584L1137.78 558.382L1137.25 557.153Z" fill="white"/>
</g>
<path d="M18.4402 515.885L19.6419 516.474L20.8712 515.945L20.2824 517.146L20.8114 518.376L19.6097 517.787L18.3804 518.316L18.9692 517.114L18.4402 515.885Z" fill="#6F6C7D"/>
<path d="M305.021 513.592L306.223 514.181L307.452 513.652L306.863 514.854L307.392 516.083L306.19 515.494L304.961 516.023L305.55 514.821L305.021 513.592Z" fill="#6F6C7D"/>
<g filter="url(#filter5_f_30_984)">
<path d="M829.82 463.471L833.025 465.041L836.303 463.63L834.733 466.835L836.144 470.113L832.939 468.542L829.661 469.953L831.231 466.749L829.82 463.471Z" fill="#868592"/>
</g>
<g filter="url(#filter6_f_30_984)">
<path d="M565.237 456.276L566.438 456.865L567.668 456.336L567.079 457.538L567.608 458.767L566.406 458.178L565.177 458.707L565.766 457.505L565.237 456.276Z" fill="white"/>
</g>
<path d="M669.552 433.35L670.754 433.938L671.983 433.409L671.394 434.611L671.923 435.84L670.721 435.252L669.492 435.781L670.081 434.579L669.552 433.35Z" fill="#6F6C7D"/>
<g filter="url(#filter7_f_30_984)">
<path d="M248.634 427.935L251.839 429.505L255.117 428.094L253.547 431.299L254.958 434.577L251.753 433.006L248.475 434.417L250.045 431.213L248.634 427.935Z" fill="#6E6B7C"/>
</g>
<path d="M1184.25 420.74L1185.45 421.329L1186.68 420.8L1186.09 422.002L1186.62 423.231L1185.42 422.642L1184.19 423.171L1184.78 421.969L1184.25 420.74Z" fill="#6F6C7D"/>
<path d="M1422.69 398.96L1423.89 399.549L1425.12 399.02L1424.53 400.221L1425.06 401.451L1423.86 400.862L1422.63 401.391L1423.22 400.189L1422.69 398.96Z" fill="white"/>
<path d="M917.158 358.839L918.36 359.427L919.589 358.898L919 360.1L919.529 361.329L918.327 360.741L917.098 361.27L917.687 360.068L917.158 358.839Z" fill="white"/>
<path d="M1247.3 357.692L1248.5 358.281L1249.73 357.752L1249.14 358.954L1249.67 360.183L1248.47 359.594L1247.24 360.123L1247.83 358.921L1247.3 357.692Z" fill="#6F6C7D"/>
<path d="M447.165 356.546L448.367 357.135L449.596 356.606L449.007 357.807L449.537 359.037L448.335 358.448L447.106 358.977L447.694 357.775L447.165 356.546Z" fill="white"/>
<g filter="url(#filter8_f_30_984)">
<path d="M96.1733 332.79L99.378 334.36L102.656 332.949L101.086 336.154L102.497 339.432L99.2919 337.862L96.0139 339.272L97.584 336.068L96.1733 332.79Z" fill="white"/>
</g>
<path d="M18.4402 330.18L19.6419 330.769L20.8712 330.24L20.2824 331.442L20.8114 332.671L19.6097 332.082L18.3804 332.611L18.9692 331.41L18.4402 330.18Z" fill="#6F6C7D"/>
<g filter="url(#filter9_f_30_984)">
<path d="M615.675 290.059L616.877 290.648L618.106 290.119L617.517 291.321L618.046 292.55L616.844 291.961L615.615 292.49L616.204 291.288L615.675 290.059Z" fill="white"/>
</g>
<path d="M207.584 287.766L208.785 288.355L210.014 287.826L209.426 289.028L209.955 290.257L208.753 289.668L207.524 290.197L208.113 288.996L207.584 287.766Z" fill="#6F6C7D"/>
<g filter="url(#filter10_f_30_984)">
<path d="M1039.81 271.718L1041.02 272.307L1042.25 271.778L1041.66 272.979L1042.19 274.209L1040.98 273.62L1039.75 274.149L1040.34 272.947L1039.81 271.718Z" fill="white"/>
</g>
<g filter="url(#filter11_f_30_984)">
<path d="M1195.5 267.449L1198.7 269.019L1201.98 267.609L1200.41 270.813L1201.82 274.091L1198.62 272.521L1195.34 273.932L1196.91 270.727L1195.5 267.449Z" fill="#6E6B7C"/>
</g>
<g filter="url(#filter12_f_30_984)">
<path d="M1417.88 235.352L1421.09 236.922L1424.37 235.512L1422.8 238.716L1424.21 241.994L1421 240.424L1417.72 241.835L1419.29 238.63L1417.88 235.352Z" fill="white"/>
</g>
<path d="M1251.88 230.45L1253.09 231.039L1254.32 230.51L1253.73 231.712L1254.26 232.941L1253.05 232.352L1251.82 232.881L1252.41 231.68L1251.88 230.45Z" fill="white"/>
<g filter="url(#filter13_f_30_984)">
<path d="M946.745 207.84L949.95 209.411L953.228 208L951.658 211.204L953.069 214.482L949.864 212.912L946.586 214.323L948.156 211.118L946.745 207.84Z" fill="white"/>
</g>
<g filter="url(#filter14_f_30_984)">
<path d="M476.753 205.548L479.957 207.118L483.235 205.707L481.665 208.912L483.076 212.19L479.871 210.62L476.593 212.03L478.163 208.826L476.753 205.548Z" fill="#868592"/>
</g>
<path d="M1123.5 190.329L1124.7 190.918L1125.93 190.389L1125.34 191.59L1125.87 192.82L1124.67 192.231L1123.44 192.76L1124.03 191.558L1123.5 190.329Z" fill="white"/>
<path d="M202.998 177.719L204.2 178.308L205.429 177.779L204.841 178.981L205.37 180.21L204.168 179.621L202.939 180.15L203.527 178.949L202.998 177.719Z" fill="white"/>
<path d="M307.314 154.793L308.515 155.382L309.745 154.853L309.156 156.054L309.685 157.284L308.483 156.695L307.254 157.224L307.843 156.022L307.314 154.793Z" fill="#6F6C7D"/>
<path d="M1361.93 137.598L1363.13 138.187L1364.36 137.658L1363.77 138.86L1364.3 140.089L1363.1 139.5L1361.87 140.029L1362.46 138.827L1361.93 137.598Z" fill="#6F6C7D"/>
<g filter="url(#filter15_f_30_984)">
<path d="M1417.88 133.329L1421.09 134.9L1424.37 133.489L1422.8 136.693L1424.21 139.971L1421 138.401L1417.72 139.812L1419.29 136.607L1417.88 133.329Z" fill="white"/>
</g>
<g filter="url(#filter16_f_30_984)">
<path d="M1100.35 120.72L1103.56 122.29L1106.84 120.879L1105.27 124.084L1106.68 127.362L1103.47 125.792L1100.19 127.203L1101.76 123.998L1100.35 120.72Z" fill="white"/>
</g>
<path d="M82.6343 112.379L83.836 112.968L85.0653 112.439L84.4765 113.64L85.0055 114.87L83.8038 114.281L82.5745 114.81L83.1633 113.608L82.6343 112.379Z" fill="#6F6C7D"/>
<path d="M1170.5 71.1114L1171.7 71.7001L1172.93 71.1711L1172.34 72.3729L1172.87 73.6021L1171.66 73.0133L1170.44 73.5423L1171.02 72.3406L1170.5 71.1114Z" fill="white"/>
<path d="M1310.35 59.6481L1311.55 60.2369L1312.78 59.7079L1312.19 60.9096L1312.72 62.1389L1311.52 61.5501L1310.29 62.0791L1310.88 60.8774L1310.35 59.6481Z" fill="#6F6C7D"/>
<path d="M1044.4 57.3555L1045.6 57.9442L1046.83 57.4152L1046.24 58.617L1046.77 59.8462L1045.57 59.2574L1044.34 59.7864L1044.93 58.5847L1044.4 57.3555Z" fill="#6F6C7D"/>
<path d="M1144.13 17.2342L1145.33 17.8229L1146.56 17.2939L1145.97 18.4957L1146.5 19.7249L1145.3 19.1361L1144.07 19.6651L1144.66 18.4634L1144.13 17.2342Z" fill="#6F6C7D"/>
<path d="M408.19 12.6489L409.392 13.2376L410.621 12.7086L410.032 13.9104L410.561 15.1396L409.36 14.5508L408.13 15.0798L408.719 13.8781L408.19 12.6489Z" fill="#6F6C7D"/>
<path d="M259.168 8.06356L260.37 8.65234L261.599 8.12331L261.01 9.32507L261.539 10.5543L260.338 9.96552L259.108 10.4945L259.697 9.29279L259.168 8.06356Z" fill="#6F6C7D"/>
<path d="M957.279 5.7709L958.481 6.35968L959.71 5.83065L959.121 7.0324L959.65 8.26163L958.449 7.67285L957.219 8.20188L957.808 7.00013L957.279 5.7709Z" fill="#6F6C7D"/>
<path d="M1364.22 1.18563L1365.43 1.77441L1366.65 1.24538L1366.07 2.44714L1366.6 3.67637L1365.39 3.08759L1364.16 3.61662L1364.75 2.41486L1364.22 1.18563Z" fill="white"/>
<defs>
<filter id="filter0_f_30_984" x="383.058" y="676.516" width="4.49072" height="4.49072" filterUnits="userSpaceOnUse" color-interpolation-filters="sRGB">
<feFlood flood-opacity="0" result="BackgroundImageFix"/>
<feBlend mode="normal" in="SourceGraphic" in2="BackgroundImageFix" result="shape"/>
<feGaussianBlur stdDeviation="0.5" result="effect1_foregroundBlur_30_984"/>
</filter>
<filter id="filter1_f_30_984" x="887.44" y="647.858" width="4.49072" height="4.49072" filterUnits="userSpaceOnUse" color-interpolation-filters="sRGB">
<feFlood flood-opacity="0" result="BackgroundImageFix"/>
<feBlend mode="normal" in="SourceGraphic" in2="BackgroundImageFix" result="shape"/>
<feGaussianBlur stdDeviation="0.5" result="effect1_foregroundBlur_30_984"/>
</filter>
<filter id="filter2_f_30_984" x="728.931" y="633.273" width="8.64209" height="8.64197" filterUnits="userSpaceOnUse" color-interpolation-filters="sRGB">
<feFlood flood-opacity="0" result="BackgroundImageFix"/>
<feBlend mode="normal" in="SourceGraphic" in2="BackgroundImageFix" result="shape"/>
<feGaussianBlur stdDeviation="0.5" result="effect1_foregroundBlur_30_984"/>
</filter>
<filter id="filter3_f_30_984" x="117.111" y="560.738" width="4.49072" height="4.49074" filterUnits="userSpaceOnUse" color-interpolation-filters="sRGB">
<feFlood flood-opacity="0" result="BackgroundImageFix"/>
<feBlend mode="normal" in="SourceGraphic" in2="BackgroundImageFix" result="shape"/>
<feGaussianBlur stdDeviation="0.5" result="effect1_foregroundBlur_30_984"/>
</filter>
<filter id="filter4_f_30_984" x="1136.19" y="556.153" width="4.49072" height="4.49074" filterUnits="userSpaceOnUse" color-interpolation-filters="sRGB">
<feFlood flood-opacity="0" result="BackgroundImageFix"/>
<feBlend mode="normal" in="SourceGraphic" in2="BackgroundImageFix" result="shape"/>
<feGaussianBlur stdDeviation="0.5" result="effect1_foregroundBlur_30_984"/>
</filter>
<filter id="filter5_f_30_984" x="828.661" y="462.471" width="8.64209" height="8.64197" filterUnits="userSpaceOnUse" color-interpolation-filters="sRGB">
<feFlood flood-opacity="0" result="BackgroundImageFix"/>
<feBlend mode="normal" in="SourceGraphic" in2="BackgroundImageFix" result="shape"/>
<feGaussianBlur stdDeviation="0.5" result="effect1_foregroundBlur_30_984"/>
</filter>
<filter id="filter6_f_30_984" x="564.177" y="455.276" width="4.49072" height="4.49074" filterUnits="userSpaceOnUse" color-interpolation-filters="sRGB">
<feFlood flood-opacity="0" result="BackgroundImageFix"/>
<feBlend mode="normal" in="SourceGraphic" in2="BackgroundImageFix" result="shape"/>
<feGaussianBlur stdDeviation="0.5" result="effect1_foregroundBlur_30_984"/>
</filter>
<filter id="filter7_f_30_984" x="247.475" y="426.935" width="8.64209" height="8.64197" filterUnits="userSpaceOnUse" color-interpolation-filters="sRGB">
<feFlood flood-opacity="0" result="BackgroundImageFix"/>
<feBlend mode="normal" in="SourceGraphic" in2="BackgroundImageFix" result="shape"/>
<feGaussianBlur stdDeviation="0.5" result="effect1_foregroundBlur_30_984"/>
</filter>
<filter id="filter8_f_30_984" x="95.0139" y="331.79" width="8.64209" height="8.64197" filterUnits="userSpaceOnUse" color-interpolation-filters="sRGB">
<feFlood flood-opacity="0" result="BackgroundImageFix"/>
<feBlend mode="normal" in="SourceGraphic" in2="BackgroundImageFix" result="shape"/>
<feGaussianBlur stdDeviation="0.5" result="effect1_foregroundBlur_30_984"/>
</filter>
<filter id="filter9_f_30_984" x="614.615" y="289.059" width="4.49072" height="4.49074" filterUnits="userSpaceOnUse" color-interpolation-filters="sRGB">
<feFlood flood-opacity="0" result="BackgroundImageFix"/>
<feBlend mode="normal" in="SourceGraphic" in2="BackgroundImageFix" result="shape"/>
<feGaussianBlur stdDeviation="0.5" result="effect1_foregroundBlur_30_984"/>
</filter>
<filter id="filter10_f_30_984" x="1038.75" y="270.718" width="4.49072" height="4.49074" filterUnits="userSpaceOnUse" color-interpolation-filters="sRGB">
<feFlood flood-opacity="0" result="BackgroundImageFix"/>
<feBlend mode="normal" in="SourceGraphic" in2="BackgroundImageFix" result="shape"/>
<feGaussianBlur stdDeviation="0.5" result="effect1_foregroundBlur_30_984"/>
</filter>
<filter id="filter11_f_30_984" x="1194.34" y="266.449" width="8.64209" height="8.64197" filterUnits="userSpaceOnUse" color-interpolation-filters="sRGB">
<feFlood flood-opacity="0" result="BackgroundImageFix"/>
<feBlend mode="normal" in="SourceGraphic" in2="BackgroundImageFix" result="shape"/>
<feGaussianBlur stdDeviation="0.5" result="effect1_foregroundBlur_30_984"/>
</filter>
<filter id="filter12_f_30_984" x="1416.72" y="234.352" width="8.64209" height="8.64197" filterUnits="userSpaceOnUse" color-interpolation-filters="sRGB">
<feFlood flood-opacity="0" result="BackgroundImageFix"/>
<feBlend mode="normal" in="SourceGraphic" in2="BackgroundImageFix" result="shape"/>
<feGaussianBlur stdDeviation="0.5" result="effect1_foregroundBlur_30_984"/>
</filter>
<filter id="filter13_f_30_984" x="945.586" y="206.84" width="8.64209" height="8.64195" filterUnits="userSpaceOnUse" color-interpolation-filters="sRGB">
<feFlood flood-opacity="0" result="BackgroundImageFix"/>
<feBlend mode="normal" in="SourceGraphic" in2="BackgroundImageFix" result="shape"/>
<feGaussianBlur stdDeviation="0.5" result="effect1_foregroundBlur_30_984"/>
</filter>
<filter id="filter14_f_30_984" x="475.593" y="204.548" width="8.64209" height="8.64195" filterUnits="userSpaceOnUse" color-interpolation-filters="sRGB">
<feFlood flood-opacity="0" result="BackgroundImageFix"/>
<feBlend mode="normal" in="SourceGraphic" in2="BackgroundImageFix" result="shape"/>
<feGaussianBlur stdDeviation="0.5" result="effect1_foregroundBlur_30_984"/>
</filter>
<filter id="filter15_f_30_984" x="1416.72" y="132.329" width="8.64209" height="8.64195" filterUnits="userSpaceOnUse" color-interpolation-filters="sRGB">
<feFlood flood-opacity="0" result="BackgroundImageFix"/>
<feBlend mode="normal" in="SourceGraphic" in2="BackgroundImageFix" result="shape"/>
<feGaussianBlur stdDeviation="0.5" result="effect1_foregroundBlur_30_984"/>
</filter>
<filter id="filter16_f_30_984" x="1099.19" y="119.72" width="8.64209" height="8.64195" filterUnits="userSpaceOnUse" color-interpolation-filters="sRGB">
<feFlood flood-opacity="0" result="BackgroundImageFix"/>
<feBlend mode="normal" in="SourceGraphic" in2="BackgroundImageFix" result="shape"/>
<feGaussianBlur stdDeviation="0.5" result="effect1_foregroundBlur_30_984"/>
</filter>
</defs>
</svg>
